{"glyphs":{"0":{"ha":981,"x_min":0,"x_max":0,"o":"m 490 -17 b 919 478 742 -17 919 188 b 490 971 919 767 742 971 b 63 478 239 971 63 767 b 490 -17 63 188 239 -17 z m 490 169 b 272 478 363 169 272 299 b 490 785 272 657 363 785 b 708 478 619 785 708 657 b 490 169 708 299 619 169 z "},"1":{"ha":576,"x_min":0,"x_max":0,"o":"m 264 0 l 469 0 l 469 954 l 306 954 l 19 763 l 101 618 l 264 719 z "},"2":{"ha":849,"x_min":0,"x_max":0,"o":"m 61 0 l 782 0 l 782 185 l 378 185 l 551 319 b 774 667 718 440 774 539 b 424 971 774 846 626 971 b 54 785 269 971 149 904 l 185 658 b 418 785 254 738 325 785 b 563 658 496 785 563 738 b 413 439 563 592 526 529 l 61 167 z "},"3":{"ha":842,"x_min":0,"x_max":0,"o":"m 419 -18 b 788 267 642 -18 788 101 b 588 490 788 393 692 467 b 767 710 692 521 767 600 b 417 971 767 861 632 971 b 54 801 247 971 133 897 l 172 676 b 397 788 236 743 307 788 b 557 674 492 788 557 743 b 390 567 557 606 494 567 l 281 568 l 281 393 l 390 393 b 576 283 519 394 576 357 b 410 167 576 215 515 167 b 157 279 314 167 224 207 l 36 143 b 419 -18 117 50 247 -18 z "},"4":{"ha":900,"x_min":0,"x_max":0,"o":"m 519 0 l 725 0 l 725 194 l 851 194 l 851 367 l 725 367 l 725 953 l 476 953 l 35 353 l 54 194 l 519 194 z m 250 367 l 519 736 l 519 367 z "},"5":{"ha":858,"x_min":0,"x_max":0,"o":"m 419 -18 b 799 314 647 -18 799 111 b 483 617 799 508 653 617 b 297 558 406 617 344 592 l 303 769 l 746 769 l 746 954 l 114 954 l 100 439 l 238 383 b 422 446 289 422 350 446 b 594 307 526 446 594 390 b 421 161 594 225 528 161 b 171 274 329 161 242 206 l 50 129 b 419 -18 139 40 260 -18 z "},"6":{"ha":893,"x_min":0,"x_max":0,"o":"m 508 617 b 272 526 418 617 332 583 b 499 790 290 688 375 790 b 693 713 578 790 635 761 l 790 868 b 497 971 713 931 617 971 b 60 461 233 971 60 758 b 465 -17 60 183 186 -17 b 831 314 674 -17 831 118 b 508 617 831 503 685 617 z m 454 157 b 278 339 347 157 296 222 b 449 450 306 407 369 450 b 619 304 542 450 619 396 b 454 157 619 228 556 157 z "},"7":{"ha":839,"x_min":0,"x_max":0,"o":"m 158 0 l 390 0 l 775 800 l 775 954 l 65 954 l 65 769 l 538 769 z "},"8":{"ha":867,"x_min":0,"x_max":0,"o":"m 433 -17 b 817 256 643 -17 817 82 b 629 493 817 365 742 449 b 793 711 725 535 793 604 b 433 971 793 875 624 971 b 75 711 247 971 75 879 b 238 493 75 603 143 533 b 50 256 128 451 50 368 b 433 -17 50 83 222 -17 z m 433 564 b 279 685 358 569 279 611 b 433 799 279 750 342 799 b 589 685 525 799 589 750 b 433 564 589 614 508 569 z m 433 156 b 258 278 332 156 258 206 b 433 403 258 353 351 400 b 610 278 515 400 610 353 b 433 156 610 206 535 156 z "},"9":{"ha":893,"x_min":0,"x_max":0,"o":"m 428 971 b 63 640 219 971 63 836 b 385 338 63 451 208 338 b 621 428 475 338 561 371 b 394 164 603 267 518 164 b 200 242 315 164 258 193 l 103 86 b 396 -17 181 24 276 -17 b 833 493 660 -17 833 196 b 428 971 833 771 707 971 z m 444 504 b 274 650 351 504 274 558 b 439 797 274 726 338 797 b 615 615 546 797 597 732 b 444 504 588 547 524 504 z "},"A":{"ha":1043,"x_min":0,"x_max":0,"o":"m 794 0 l 1025 0 l 636 954 l 407 954 l 18 0 l 247 0 l 308 150 l 733 150 z m 379 324 l 521 672 l 663 324 z "},"Á":{"ha":1043,"x_min":0,"x_max":0,"o":"m 793 1218 l 611 1251 l 450 1035 l 588 1035 z m 794 0 l 1025 0 l 636 954 l 407 954 l 18 0 l 247 0 l 308 150 l 733 150 z m 379 324 l 521 672 l 663 324 z "},"Ă":{"ha":1043,"x_min":0,"x_max":0,"o":"m 746 1135 l 658 1222 b 522 1164 621 1186 569 1164 b 386 1222 475 1164 424 1186 l 299 1135 b 522 1043 361 1074 442 1043 b 746 1135 603 1043 685 1074 z m 794 0 l 1025 0 l 636 954 l 407 954 l 18 0 l 247 0 l 308 150 l 733 150 z m 379 324 l 521 672 l 663 324 z "},"Â":{"ha":1043,"x_min":0,"x_max":0,"o":"m 522 1138 l 628 1035 l 754 1035 l 607 1239 l 439 1239 l 293 1035 l 418 1035 z m 794 0 l 1025 0 l 636 954 l 407 954 l 18 0 l 247 0 l 308 150 l 733 150 z m 379 324 l 521 672 l 663 324 z "},"Ä":{"ha":1043,"x_min":0,"x_max":0,"o":"m 376 1047 b 474 1144 429 1047 474 1092 b 376 1242 474 1197 429 1242 b 278 1144 319 1242 278 1197 b 376 1047 278 1092 319 1047 z m 669 1047 b 767 1144 724 1047 767 1092 b 669 1242 767 1197 724 1242 b 572 1144 615 1242 572 1197 b 669 1047 572 1092 615 1047 z m 794 0 l 1025 0 l 636 954 l 407 954 l 18 0 l 247 0 l 308 150 l 733 150 z m 379 324 l 521 672 l 663 324 z "},"À":{"ha":1043,"x_min":0,"x_max":0,"o":"m 596 1035 l 435 1251 l 253 1218 l 458 1035 z m 794 0 l 1025 0 l 636 954 l 407 954 l 18 0 l 247 0 l 308 150 l 733 150 z m 379 324 l 521 672 l 663 324 z "},"Ā":{"ha":1043,"x_min":0,"x_max":0,"o":"m 761 1163 l 282 1163 l 282 1043 l 761 1043 z m 794 0 l 1025 0 l 636 954 l 407 954 l 18 0 l 247 0 l 308 150 l 733 150 z m 379 324 l 521 672 l 663 324 z "},"Ą":{"ha":1043,"x_min":0,"x_max":0,"o":"m 1076 -100 b 1025 -118 1065 -111 1046 -118 b 961 -61 986 -118 961 -99 b 1025 0 961 -26 986 0 l 636 954 l 407 954 l 18 0 l 247 0 l 308 150 l 733 150 l 794 0 l 860 0 b 835 -86 844 -24 835 -53 b 989 -240 835 -182 899 -240 b 1113 -194 1039 -240 1082 -222 z m 379 324 l 521 672 l 663 324 z "},"Å":{"ha":1043,"x_min":0,"x_max":0,"o":"m 522 1043 b 681 1200 610 1043 681 1113 b 522 1358 681 1288 610 1358 b 364 1200 435 1358 364 1288 b 522 1043 364 1113 435 1043 z m 522 1274 b 596 1200 563 1274 596 1240 b 522 1126 596 1160 563 1126 b 449 1200 482 1126 449 1160 b 522 1274 449 1240 482 1274 z m 794 0 l 1025 0 l 636 954 l 407 954 l 18 0 l 247 0 l 308 150 l 733 150 z m 379 324 l 521 672 l 663 324 z "},"Ã":{"ha":1043,"x_min":0,"x_max":0,"o":"m 433 1103 b 615 1032 479 1103 538 1032 b 769 1215 707 1032 756 1093 l 669 1229 b 611 1157 660 1179 642 1157 b 428 1228 567 1157 506 1228 b 274 1044 338 1228 289 1165 l 375 1029 b 433 1103 385 1081 403 1103 z m 794 0 l 1025 0 l 636 954 l 407 954 l 18 0 l 247 0 l 308 150 l 733 150 z m 379 324 l 521 672 l 663 324 z "},"Æ":{"ha":1496,"x_min":0,"x_max":0,"o":"m 1435 769 l 1435 954 l 569 954 l 18 0 l 256 0 l 350 164 l 700 164 l 700 0 l 1435 0 l 1435 185 l 906 185 l 906 394 l 1385 394 l 1385 579 l 906 579 l 906 769 z m 443 324 l 700 769 l 700 324 z "},"B":{"ha":971,"x_min":0,"x_max":0,"o":"m 103 0 l 604 0 b 917 258 786 0 917 106 b 742 503 917 364 853 453 b 875 715 826 547 875 618 b 586 954 875 854 757 954 l 103 954 z m 307 569 l 307 779 l 535 779 b 665 675 611 779 665 735 b 535 569 665 614 611 569 z m 307 175 l 307 408 l 567 408 b 707 292 649 408 707 360 b 567 175 707 224 649 175 z "},"C":{"ha":967,"x_min":0,"x_max":0,"o":"m 564 -17 b 935 143 708 -17 842 46 l 786 276 b 564 169 731 213 651 169 b 268 478 404 169 268 311 b 564 785 268 643 404 785 b 786 678 651 785 731 742 l 935 811 b 564 971 842 910 708 971 b 57 478 290 971 57 746 b 564 -17 57 210 290 -17 z "},"Ć":{"ha":967,"x_min":0,"x_max":0,"o":"m 389 1035 l 526 1035 l 732 1218 l 550 1251 z m 564 -17 b 935 143 708 -17 842 46 l 786 276 b 564 169 731 213 651 169 b 268 478 404 169 268 311 b 564 785 268 643 404 785 b 786 678 651 785 731 742 l 935 811 b 564 971 842 910 708 971 b 57 478 290 971 57 746 b 564 -17 57 210 290 -17 z "},"Č":{"ha":967,"x_min":0,"x_max":0,"o":"m 449 1035 l 617 1035 l 764 1239 l 638 1239 l 532 1135 l 428 1239 l 303 1239 z m 564 -17 b 935 143 708 -17 842 46 l 786 276 b 564 169 731 213 651 169 b 268 478 404 169 268 311 b 564 785 268 643 404 785 b 786 678 651 785 731 742 l 935 811 b 564 971 842 910 708 971 b 57 478 290 971 57 746 b 564 -17 57 210 290 -17 z "},"Ç":{"ha":967,"x_min":0,"x_max":0,"o":"m 564 169 b 268 478 404 169 268 311 b 564 785 268 643 404 785 b 786 678 651 785 731 742 l 935 811 b 564 971 842 910 708 971 b 57 478 290 971 57 746 b 499 -12 57 231 254 19 l 467 -89 l 497 -118 b 539 -106 510 -110 525 -106 b 585 -143 568 -106 585 -121 b 526 -185 585 -168 558 -185 b 442 -153 497 -185 467 -174 l 406 -233 b 538 -274 436 -256 486 -274 b 688 -154 624 -274 688 -228 b 583 -60 688 -99 644 -60 l 601 -15 b 935 143 731 -6 850 54 l 786 276 b 564 169 731 213 651 169 z "},"D":{"ha":1057,"x_min":0,"x_max":0,"o":"m 103 0 l 444 0 b 993 478 765 0 993 199 b 444 954 993 757 765 954 l 103 954 z m 307 186 l 307 768 l 471 768 b 782 478 653 768 782 647 b 471 186 782 307 653 186 z "},"Ð":{"ha":1114,"x_min":0,"x_max":0,"o":"m 503 954 l 161 954 l 161 574 l 57 574 l 57 389 l 161 389 l 161 0 l 503 0 b 1051 478 824 0 1051 199 b 503 954 1051 757 824 954 z m 529 186 l 365 186 l 365 389 l 582 389 l 583 574 l 365 574 l 365 768 l 529 768 b 840 478 711 768 840 647 b 529 186 840 307 711 186 z "},"Ď":{"ha":1057,"x_min":0,"x_max":0,"o":"m 361 1035 l 529 1035 l 676 1239 l 550 1239 l 444 1135 l 340 1239 l 215 1239 z m 103 0 l 444 0 b 993 478 765 0 993 199 b 444 954 993 757 765 954 l 103 954 z m 307 186 l 307 768 l 471 768 b 782 478 653 768 782 647 b 471 186 782 307 653 186 z "},"Đ":{"ha":1114,"x_min":0,"x_max":0,"o":"m 503 954 l 161 954 l 161 574 l 57 574 l 57 389 l 161 389 l 161 0 l 503 0 b 1051 478 824 0 1051 199 b 503 954 1051 757 824 954 z m 529 186 l 365 186 l 365 389 l 582 389 l 583 574 l 365 574 l 365 768 l 529 768 b 840 478 711 768 840 647 b 529 186 840 307 711 186 z "},"E":{"ha":890,"x_min":0,"x_max":0,"o":"m 829 769 l 829 954 l 94 954 l 94 0 l 829 0 l 829 185 l 300 185 l 300 394 l 779 394 l 779 579 l 300 579 l 300 769 z "},"É":{"ha":890,"x_min":0,"x_max":0,"o":"m 663 1218 l 481 1251 l 319 1035 l 457 1035 z m 829 769 l 829 954 l 94 954 l 94 0 l 829 0 l 829 185 l 300 185 l 300 394 l 779 394 l 779 579 l 300 579 l 300 769 z "},"Ě":{"ha":890,"x_min":0,"x_max":0,"o":"m 547 1035 l 694 1239 l 568 1239 l 463 1135 l 358 1239 l 233 1239 l 379 1035 z m 829 769 l 829 954 l 94 954 l 94 0 l 829 0 l 829 185 l 300 185 l 300 394 l 779 394 l 779 579 l 300 579 l 300 769 z "},"Ê":{"ha":890,"x_min":0,"x_max":0,"o":"m 463 1138 l 568 1035 l 694 1035 l 547 1239 l 379 1239 l 233 1035 l 358 1035 z m 829 769 l 829 954 l 94 954 l 94 0 l 829 0 l 829 185 l 300 185 l 300 394 l 779 394 l 779 579 l 300 579 l 300 769 z "},"Ë":{"ha":890,"x_min":0,"x_max":0,"o":"m 317 1047 b 414 1144 369 1047 414 1092 b 317 1242 414 1197 369 1242 b 218 1144 260 1242 218 1197 b 317 1047 218 1092 260 1047 z m 610 1047 b 707 1144 664 1047 707 1092 b 610 1242 707 1197 664 1242 b 513 1144 556 1242 513 1197 b 610 1047 513 1092 556 1047 z m 829 769 l 829 954 l 94 954 l 94 0 l 829 0 l 829 185 l 300 185 l 300 394 l 779 394 l 779 579 l 300 579 l 300 769 z "},"Ė":{"ha":890,"x_min":0,"x_max":0,"o":"m 463 1047 b 560 1144 515 1047 560 1092 b 463 1242 560 1197 515 1242 b 364 1144 406 1242 364 1197 b 463 1047 364 1092 406 1047 z m 829 769 l 829 954 l 94 954 l 94 0 l 829 0 l 829 185 l 300 185 l 300 394 l 779 394 l 779 579 l 300 579 l 300 769 z "},"Ẹ":{"ha":890,"x_min":0,"x_max":0,"o":"m 829 769 l 829 954 l 94 954 l 94 0 l 829 0 l 829 185 l 300 185 l 300 394 l 779 394 l 779 579 l 300 579 l 300 769 z m 464 -99 b 365 -196 407 -99 365 -143 b 464 -293 365 -249 407 -293 b 561 -196 517 -293 561 -249 b 464 -99 561 -143 517 -99 z "},"È":{"ha":890,"x_min":0,"x_max":0,"o":"m 593 1035 l 432 1251 l 250 1218 l 456 1035 z m 829 769 l 829 954 l 94 954 l 94 0 l 829 0 l 829 185 l 300 185 l 300 394 l 779 394 l 779 579 l 300 579 l 300 769 z "},"Ē":{"ha":890,"x_min":0,"x_max":0,"o":"m 701 1163 l 222 1163 l 222 1043 l 701 1043 z m 829 769 l 829 954 l 94 954 l 94 0 l 829 0 l 829 185 l 300 185 l 300 394 l 779 394 l 779 579 l 300 579 l 300 769 z "},"Ę":{"ha":890,"x_min":0,"x_max":0,"o":"m 829 769 l 829 954 l 94 954 l 94 0 l 575 0 b 550 -86 560 -24 550 -53 b 704 -240 550 -182 614 -240 b 828 -194 754 -240 797 -222 l 792 -100 b 740 -118 781 -111 761 -118 b 676 -61 701 -118 676 -99 b 740 0 676 -26 701 0 l 829 0 l 829 185 l 300 185 l 300 394 l 779 394 l 779 579 l 300 579 l 300 769 z "},"Ẽ":{"ha":890,"x_min":0,"x_max":0,"o":"m 374 1103 b 556 1032 419 1103 478 1032 b 710 1215 647 1032 696 1093 l 610 1229 b 551 1157 600 1179 582 1157 b 368 1228 507 1157 446 1228 b 214 1044 278 1228 229 1165 l 315 1029 b 374 1103 325 1081 343 1103 z m 829 769 l 829 954 l 94 954 l 94 0 l 829 0 l 829 185 l 300 185 l 300 394 l 779 394 l 779 579 l 300 579 l 300 769 z "},"F":{"ha":881,"x_min":0,"x_max":0,"o":"m 829 769 l 829 954 l 94 954 l 94 0 l 300 0 l 300 378 l 779 378 l 779 563 l 300 563 l 300 769 z "},"G":{"ha":1032,"x_min":0,"x_max":0,"o":"m 532 376 l 754 376 l 754 231 b 568 169 700 192 633 169 b 268 478 406 169 268 311 b 568 785 268 643 406 785 b 806 678 656 785 749 743 l 954 811 b 568 971 858 911 711 971 b 57 478 292 971 57 746 b 568 -17 57 210 292 -17 b 954 143 711 -17 858 43 l 954 536 l 532 536 z "},"Ğ":{"ha":1032,"x_min":0,"x_max":0,"o":"m 792 1135 l 704 1222 b 568 1164 667 1186 615 1164 b 432 1222 521 1164 469 1186 l 344 1135 b 568 1043 407 1074 488 1043 b 792 1135 649 1043 731 1074 z m 532 376 l 754 376 l 754 231 b 568 169 700 192 633 169 b 268 478 406 169 268 311 b 568 785 268 643 406 785 b 806 678 656 785 749 743 l 954 811 b 568 971 858 911 711 971 b 57 478 292 971 57 746 b 568 -17 57 210 292 -17 b 954 143 711 -17 858 43 l 954 536 l 532 536 z "},"Ģ":{"ha":1032,"x_min":0,"x_max":0,"o":"m 532 376 l 754 376 l 754 231 b 568 169 700 192 633 169 b 268 478 406 169 268 311 b 568 785 268 643 406 785 b 806 678 656 785 749 743 l 954 811 b 568 971 858 911 711 971 b 57 478 292 971 57 746 b 568 -17 57 210 292 -17 b 954 143 711 -17 858 43 l 954 536 l 532 536 z m 567 -65 b 472 -162 514 -65 472 -108 b 564 -258 472 -214 514 -258 b 499 -361 556 -293 532 -329 l 556 -404 b 668 -197 632 -328 668 -261 b 567 -65 668 -121 628 -65 z "},"H":{"ha":1032,"x_min":0,"x_max":0,"o":"m 733 954 l 733 579 l 299 579 l 299 954 l 94 954 l 94 0 l 299 0 l 299 394 l 733 394 l 733 0 l 938 0 l 938 954 z "},"I":{"ha":399,"x_min":0,"x_max":0,"o":"m 97 0 l 303 0 l 303 954 l 97 954 z "},"Í":{"ha":399,"x_min":0,"x_max":0,"o":"m 129 1035 l 267 1035 l 472 1218 l 290 1251 z m 97 0 l 303 0 l 303 954 l 97 954 z "},"Î":{"ha":399,"x_min":0,"x_max":0,"o":"m -29 1035 l 96 1035 l 200 1138 l 306 1035 l 432 1035 l 285 1239 l 117 1239 z m 97 0 l 303 0 l 303 954 l 97 954 z "},"Ï":{"ha":399,"x_min":0,"x_max":0,"o":"m 54 1047 b 151 1144 107 1047 151 1092 b 54 1242 151 1197 107 1242 b -44 1144 -3 1242 -44 1197 b 54 1047 -44 1092 -3 1047 z m 347 1047 b 444 1144 401 1047 444 1092 b 347 1242 444 1197 401 1242 b 250 1144 293 1242 250 1197 b 347 1047 250 1092 293 1047 z m 97 0 l 303 0 l 303 954 l 97 954 z "},"İ":{"ha":399,"x_min":0,"x_max":0,"o":"m 200 1047 b 297 1144 253 1047 297 1092 b 200 1242 297 1197 253 1242 b 101 1144 143 1242 101 1197 b 200 1047 101 1092 143 1047 z m 97 0 l 303 0 l 303 954 l 97 954 z "},"Ì":{"ha":399,"x_min":0,"x_max":0,"o":"m 132 1035 l 269 1035 l 108 1251 l -74 1218 z m 97 0 l 303 0 l 303 954 l 97 954 z "},"Ī":{"ha":399,"x_min":0,"x_max":0,"o":"m -40 1043 l 439 1043 l 439 1163 l -40 1163 z m 97 0 l 303 0 l 303 954 l 97 954 z "},"Į":{"ha":399,"x_min":0,"x_max":0,"o":"m 329 -100 b 278 -118 318 -111 299 -118 b 214 -61 239 -118 214 -99 b 278 0 214 -26 239 0 l 303 0 l 303 954 l 97 954 l 97 0 l 113 0 b 88 -86 97 -24 88 -53 b 242 -240 88 -182 151 -240 b 365 -194 292 -240 335 -222 z "},"J":{"ha":757,"x_min":0,"x_max":0,"o":"m 336 -17 b 665 311 529 -17 665 119 l 665 954 l 460 954 l 460 328 b 315 169 460 235 399 169 b 153 275 251 169 183 213 l 17 142 b 336 -17 81 49 214 -17 z "},"K":{"ha":971,"x_min":0,"x_max":0,"o":"m 101 0 l 306 0 l 306 267 l 425 394 l 718 0 l 967 0 l 568 540 l 940 954 l 692 954 l 306 517 l 306 954 l 101 954 z "},"Ķ":{"ha":971,"x_min":0,"x_max":0,"o":"m 101 0 l 306 0 l 306 267 l 425 394 l 718 0 l 967 0 l 568 540 l 940 954 l 692 954 l 306 517 l 306 954 l 101 954 z m 490 -404 b 603 -197 567 -328 603 -261 b 501 -65 603 -121 563 -65 b 407 -162 449 -65 407 -108 b 499 -258 407 -214 449 -258 b 433 -361 490 -293 467 -329 z "},"L":{"ha":806,"x_min":0,"x_max":0,"o":"m 293 185 l 293 954 l 88 954 l 88 0 l 768 0 l 768 185 z "},"Ĺ":{"ha":806,"x_min":0,"x_max":0,"o":"m 460 1218 l 278 1251 l 117 1035 l 254 1035 z m 293 185 l 293 954 l 88 954 l 88 0 l 768 0 l 768 185 z "},"Ľ":{"ha":806,"x_min":0,"x_max":0,"o":"m 476 776 b 411 674 468 742 444 706 l 468 631 b 581 838 544 707 581 774 b 479 969 581 914 540 969 b 385 872 426 969 385 926 b 476 776 385 821 426 776 z m 293 185 l 293 954 l 88 954 l 88 0 l 768 0 l 768 185 z "},"Ł":{"ha":857,"x_min":0,"x_max":0,"o":"m 343 185 l 343 432 l 507 514 l 507 694 l 343 613 l 343 954 l 138 954 l 138 510 l 36 460 l 36 278 l 138 329 l 138 0 l 818 0 l 818 185 z "},"M":{"ha":1204,"x_min":0,"x_max":0,"o":"m 103 0 l 307 0 l 307 594 l 603 56 l 897 594 l 897 0 l 1103 0 l 1103 954 l 897 954 l 603 415 l 307 954 l 103 954 z "},"N":{"ha":1075,"x_min":0,"x_max":0,"o":"m 103 0 l 307 0 l 307 617 l 767 0 l 972 0 l 972 954 l 767 954 l 767 338 l 307 954 l 103 954 z "},"Ń":{"ha":1075,"x_min":0,"x_max":0,"o":"m 394 1035 l 532 1035 l 738 1218 l 556 1251 z m 103 0 l 307 0 l 307 617 l 767 0 l 972 0 l 972 954 l 767 954 l 767 338 l 307 954 l 103 954 z "},"Ň":{"ha":1075,"x_min":0,"x_max":0,"o":"m 454 1035 l 622 1035 l 769 1239 l 643 1239 l 538 1135 l 433 1239 l 308 1239 z m 103 0 l 307 0 l 307 617 l 767 0 l 972 0 l 972 954 l 767 954 l 767 338 l 307 954 l 103 954 z "},"Ņ":{"ha":1075,"x_min":0,"x_max":0,"o":"m 103 0 l 307 0 l 307 617 l 767 0 l 972 0 l 972 954 l 767 954 l 767 338 l 307 954 l 103 954 z m 526 -404 b 639 -197 603 -328 639 -261 b 538 -65 639 -121 599 -65 b 443 -162 485 -65 443 -108 b 535 -258 443 -214 485 -258 b 469 -361 526 -293 503 -329 z "},"Ñ":{"ha":1075,"x_min":0,"x_max":0,"o":"m 631 1032 b 785 1215 722 1032 771 1093 l 685 1229 b 626 1157 675 1179 657 1157 b 443 1228 582 1157 521 1228 b 289 1044 353 1228 304 1165 l 390 1029 b 449 1103 400 1081 418 1103 b 631 1032 494 1103 553 1032 z m 103 0 l 307 0 l 307 617 l 767 0 l 972 0 l 972 954 l 767 954 l 767 338 l 307 954 l 103 954 z "},"O":{"ha":1128,"x_min":0,"x_max":0,"o":"m 564 -17 b 1071 478 840 -17 1071 210 b 564 971 1071 746 840 971 b 57 478 290 971 57 746 b 564 -17 57 210 290 -17 z m 564 169 b 268 478 404 169 268 311 b 564 785 268 643 404 785 b 861 478 725 785 861 643 b 564 169 861 311 725 169 z "},"Ó":{"ha":1128,"x_min":0,"x_max":0,"o":"m 492 1035 l 629 1035 l 835 1218 l 653 1251 z m 564 -17 b 1071 478 840 -17 1071 210 b 564 971 1071 746 840 971 b 57 478 290 971 57 746 b 564 -17 57 210 290 -17 z m 564 169 b 268 478 404 169 268 311 b 564 785 268 643 404 785 b 861 478 725 785 861 643 b 564 169 861 311 725 169 z "},"Ô":{"ha":1128,"x_min":0,"x_max":0,"o":"m 335 1035 l 460 1035 l 564 1138 l 669 1035 l 796 1035 l 649 1239 l 481 1239 z m 564 -17 b 1071 478 840 -17 1071 210 b 564 971 1071 746 840 971 b 57 478 290 971 57 746 b 564 -17 57 210 290 -17 z m 564 169 b 268 478 404 169 268 311 b 564 785 268 643 404 785 b 861 478 725 785 861 643 b 564 169 861 311 725 169 z "},"Ö":{"ha":1128,"x_min":0,"x_max":0,"o":"m 418 1047 b 515 1144 471 1047 515 1092 b 418 1242 515 1197 471 1242 b 319 1144 361 1242 319 1197 b 418 1047 319 1092 361 1047 z m 711 1047 b 808 1144 765 1047 808 1092 b 711 1242 808 1197 765 1242 b 614 1144 657 1242 614 1197 b 711 1047 614 1092 657 1047 z m 564 -17 b 1071 478 840 -17 1071 210 b 564 971 1071 746 840 971 b 57 478 290 971 57 746 b 564 -17 57 210 290 -17 z m 564 169 b 268 478 404 169 268 311 b 564 785 268 643 404 785 b 861 478 725 785 861 643 b 564 169 861 311 725 169 z "},"Ò":{"ha":1128,"x_min":0,"x_max":0,"o":"m 499 1035 l 636 1035 l 475 1251 l 293 1218 z m 564 -17 b 1071 478 840 -17 1071 210 b 564 971 1071 746 840 971 b 57 478 290 971 57 746 b 564 -17 57 210 290 -17 z m 564 169 b 268 478 404 169 268 311 b 564 785 268 643 404 785 b 861 478 725 785 861 643 b 564 169 861 311 725 169 z "},"Ő":{"ha":1128,"x_min":0,"x_max":0,"o":"m 318 1033 l 456 1033 l 661 1218 l 479 1251 z m 644 1033 l 782 1033 l 988 1217 l 804 1250 z m 564 -17 b 1071 478 840 -17 1071 210 b 564 971 1071 746 840 971 b 57 478 290 971 57 746 b 564 -17 57 210 290 -17 z m 564 169 b 268 478 404 169 268 311 b 564 785 268 643 404 785 b 861 478 725 785 861 643 b 564 169 861 311 725 169 z "},"Ō":{"ha":1128,"x_min":0,"x_max":0,"o":"m 324 1043 l 803 1043 l 803 1163 l 324 1163 z m 564 -17 b 1071 478 840 -17 1071 210 b 564 971 1071 746 840 971 b 57 478 290 971 57 746 b 564 -17 57 210 290 -17 z m 564 169 b 268 478 404 169 268 311 b 564 785 268 643 404 785 b 861 478 725 785 861 643 b 564 169 861 311 725 169 z "},"Ø":{"ha":1128,"x_min":0,"x_max":0,"o":"m 936 808 l 1060 954 l 879 954 l 829 896 b 564 971 751 943 661 971 b 57 478 290 971 57 746 b 193 146 57 351 108 233 l 69 0 l 250 0 l 300 58 b 564 -17 378 11 468 -17 b 1071 478 840 -17 1071 210 b 936 808 1071 604 1019 721 z m 268 478 b 564 785 268 643 404 785 b 704 747 614 785 661 771 l 324 300 b 268 478 289 351 268 413 z m 564 169 b 425 207 514 169 467 183 l 806 654 b 861 478 840 604 861 543 b 564 169 861 311 725 169 z "},"Õ":{"ha":1128,"x_min":0,"x_max":0,"o":"m 657 1032 b 811 1215 749 1032 797 1093 l 711 1229 b 653 1157 701 1179 683 1157 b 469 1228 608 1157 547 1228 b 315 1044 379 1228 331 1165 l 417 1029 b 475 1103 426 1081 444 1103 b 657 1032 521 1103 579 1032 z m 564 -17 b 1071 478 840 -17 1071 210 b 564 971 1071 746 840 971 b 57 478 290 971 57 746 b 564 -17 57 210 290 -17 z m 564 169 b 268 478 404 169 268 311 b 564 785 268 643 404 785 b 861 478 725 785 861 643 b 564 169 861 311 725 169 z "},"Œ":{"ha":1444,"x_min":0,"x_max":0,"o":"m 1383 769 l 1383 954 l 564 954 b 57 472 290 954 57 740 b 564 0 57 204 290 0 l 1383 0 l 1383 185 l 854 185 l 854 394 l 1333 394 l 1333 579 l 854 579 l 854 769 z m 564 186 b 268 472 404 186 268 306 b 564 768 268 638 404 768 l 649 768 l 649 186 z "},"P":{"ha":917,"x_min":0,"x_max":0,"o":"m 94 0 l 299 0 l 299 310 l 524 310 b 883 632 731 310 883 443 b 524 954 883 821 731 954 l 94 954 z m 299 497 l 299 767 l 501 767 b 672 632 603 767 672 714 b 501 497 672 550 603 497 z "},"Þ":{"ha":917,"x_min":0,"x_max":0,"o":"m 94 0 l 299 0 l 299 157 l 524 157 b 883 479 731 157 883 290 b 524 801 883 669 731 801 l 296 801 l 296 954 l 94 954 z m 299 346 l 299 614 l 501 614 b 672 479 603 614 672 561 b 501 346 672 397 603 346 z "},"Q":{"ha":1128,"x_min":0,"x_max":0,"o":"m 1071 478 b 564 971 1071 746 840 971 b 57 478 290 971 57 746 b 564 -17 57 210 290 -17 b 868 85 678 -17 783 21 l 965 0 l 1069 121 l 981 199 b 1071 478 1038 279 1071 375 z m 564 169 b 268 478 404 169 268 311 b 564 785 268 643 404 785 b 861 478 725 785 861 643 b 825 333 861 426 849 376 l 710 433 l 606 313 l 717 215 b 564 169 672 186 619 169 z "},"R":{"ha":942,"x_min":0,"x_max":0,"o":"m 901 0 l 667 333 b 883 632 797 379 883 490 b 524 954 883 821 731 954 l 94 954 l 94 0 l 299 0 l 299 310 l 450 310 l 668 0 z m 299 767 l 501 767 b 672 632 603 767 672 714 b 501 497 672 550 603 497 l 299 497 z "},"Ŕ":{"ha":942,"x_min":0,"x_max":0,"o":"m 671 1218 l 489 1251 l 328 1035 l 465 1035 z m 901 0 l 667 333 b 883 632 797 379 883 490 b 524 954 883 821 731 954 l 94 954 l 94 0 l 299 0 l 299 310 l 450 310 l 668 0 z m 299 767 l 501 767 b 672 632 603 767 672 714 b 501 497 672 550 603 497 l 299 497 z "},"Ř":{"ha":942,"x_min":0,"x_max":0,"o":"m 556 1035 l 703 1239 l 576 1239 l 471 1135 l 367 1239 l 242 1239 l 388 1035 z m 901 0 l 667 333 b 883 632 797 379 883 490 b 524 954 883 821 731 954 l 94 954 l 94 0 l 299 0 l 299 310 l 450 310 l 668 0 z m 299 767 l 501 767 b 672 632 603 767 672 714 b 501 497 672 550 603 497 l 299 497 z "},"Ŗ":{"ha":942,"x_min":0,"x_max":0,"o":"m 667 333 b 883 632 797 379 883 490 b 524 954 883 821 731 954 l 94 954 l 94 0 l 299 0 l 299 310 l 450 310 l 668 0 l 901 0 z m 299 767 l 501 767 b 672 632 603 767 672 714 b 501 497 672 550 603 497 l 299 497 z m 468 -65 b 374 -162 415 -65 374 -108 b 465 -258 374 -214 415 -258 b 400 -361 457 -293 433 -329 l 457 -404 b 569 -197 533 -328 569 -261 b 468 -65 569 -121 529 -65 z "},"S":{"ha":879,"x_min":0,"x_max":0,"o":"m 456 -17 b 826 286 689 -17 826 104 b 485 569 826 463 690 524 b 281 694 338 603 281 625 b 421 797 281 751 333 797 b 693 692 513 797 608 760 l 800 839 b 426 971 703 922 582 971 b 74 674 218 971 74 850 b 418 386 74 489 217 432 b 619 264 564 353 619 332 b 464 157 619 204 567 157 b 150 282 343 157 240 204 l 32 142 b 456 -17 143 39 290 -17 z "},"Ś":{"ha":879,"x_min":0,"x_max":0,"o":"m 283 1035 l 421 1035 l 626 1218 l 444 1251 z m 456 -17 b 826 286 689 -17 826 104 b 485 569 826 463 690 524 b 281 694 338 603 281 625 b 421 797 281 751 333 797 b 693 692 513 797 608 760 l 800 839 b 426 971 703 922 582 971 b 74 674 218 971 74 850 b 418 386 74 489 217 432 b 619 264 564 353 619 332 b 464 157 619 204 567 157 b 150 282 343 157 240 204 l 32 142 b 456 -17 143 39 290 -17 z "},"Š":{"ha":879,"x_min":0,"x_max":0,"o":"m 343 1035 l 511 1035 l 658 1239 l 532 1239 l 426 1135 l 322 1239 l 197 1239 z m 456 -17 b 826 286 689 -17 826 104 b 485 569 826 463 690 524 b 281 694 338 603 281 625 b 421 797 281 751 333 797 b 693 692 513 797 608 760 l 800 839 b 426 971 703 922 582 971 b 74 674 218 971 74 850 b 418 386 74 489 217 432 b 619 264 564 353 619 332 b 464 157 619 204 567 157 b 150 282 343 157 240 204 l 32 142 b 456 -17 143 39 290 -17 z "},"Ş":{"ha":879,"x_min":0,"x_max":0,"o":"m 826 286 b 485 569 826 463 690 524 b 281 694 338 603 281 625 b 421 797 281 751 333 797 b 693 692 513 797 608 760 l 800 839 b 426 971 703 922 582 971 b 74 674 218 971 74 850 b 418 386 74 489 217 432 b 619 264 564 353 619 332 b 464 157 619 204 567 157 b 150 282 343 157 240 204 l 32 142 b 393 -14 129 51 253 -1 l 361 -89 l 392 -118 b 433 -106 404 -110 419 -106 b 479 -143 463 -106 479 -121 b 421 -185 479 -168 453 -185 b 336 -153 392 -185 361 -174 l 300 -233 b 432 -274 331 -256 381 -274 b 582 -154 518 -274 582 -228 b 478 -60 582 -99 539 -60 l 496 -15 b 826 286 704 -3 826 115 z "},"T":{"ha":888,"x_min":0,"x_max":0,"o":"m 342 0 l 547 0 l 547 769 l 844 769 l 844 954 l 44 954 l 44 769 l 342 769 z "},"Ť":{"ha":888,"x_min":0,"x_max":0,"o":"m 361 1035 l 529 1035 l 676 1239 l 550 1239 l 444 1135 l 340 1239 l 215 1239 z m 342 0 l 547 0 l 547 769 l 844 769 l 844 954 l 44 954 l 44 769 l 342 769 z "},"Ţ":{"ha":888,"x_min":0,"x_max":0,"o":"m 547 0 l 547 769 l 844 769 l 844 954 l 44 954 l 44 769 l 342 769 l 342 0 l 397 0 l 360 -89 l 390 -118 b 432 -106 403 -110 418 -106 b 478 -143 461 -106 478 -121 b 419 -185 478 -168 451 -185 b 335 -153 390 -185 360 -174 l 299 -233 b 431 -274 329 -256 379 -274 b 581 -154 517 -274 581 -228 b 476 -60 581 -99 538 -60 l 500 0 z "},"U":{"ha":1049,"x_min":0,"x_max":0,"o":"m 525 -17 b 957 413 778 -17 957 161 l 957 954 l 751 954 l 751 421 b 525 169 751 274 657 169 b 297 421 392 169 297 274 l 297 954 l 93 954 l 93 413 b 525 -17 93 161 271 -17 z "},"Ú":{"ha":1049,"x_min":0,"x_max":0,"o":"m 382 1035 l 519 1035 l 725 1218 l 543 1251 z m 525 -17 b 957 413 778 -17 957 161 l 957 954 l 751 954 l 751 421 b 525 169 751 274 657 169 b 297 421 392 169 297 274 l 297 954 l 93 954 l 93 413 b 525 -17 93 161 271 -17 z "},"Û":{"ha":1049,"x_min":0,"x_max":0,"o":"m 296 1035 l 421 1035 l 525 1138 l 631 1035 l 757 1035 l 610 1239 l 442 1239 z m 525 -17 b 957 413 778 -17 957 161 l 957 954 l 751 954 l 751 421 b 525 169 751 274 657 169 b 297 421 392 169 297 274 l 297 954 l 93 954 l 93 413 b 525 -17 93 161 271 -17 z "},"Ü":{"ha":1049,"x_min":0,"x_max":0,"o":"m 379 1047 b 476 1144 432 1047 476 1092 b 379 1242 476 1197 432 1242 b 281 1144 322 1242 281 1197 b 379 1047 281 1092 322 1047 z m 672 1047 b 769 1144 726 1047 769 1092 b 672 1242 769 1197 726 1242 b 575 1144 618 1242 575 1197 b 672 1047 575 1092 618 1047 z m 525 -17 b 957 413 778 -17 957 161 l 957 954 l 751 954 l 751 421 b 525 169 751 274 657 169 b 297 421 392 169 297 274 l 297 954 l 93 954 l 93 413 b 525 -17 93 161 271 -17 z "},"Ù":{"ha":1049,"x_min":0,"x_max":0,"o":"m 518 1035 l 656 1035 l 494 1251 l 313 1218 z m 525 -17 b 957 413 778 -17 957 161 l 957 954 l 751 954 l 751 421 b 525 169 751 274 657 169 b 297 421 392 169 297 274 l 297 954 l 93 954 l 93 413 b 525 -17 93 161 271 -17 z "},"Ű":{"ha":1049,"x_min":0,"x_max":0,"o":"m 265 1033 l 403 1033 l 608 1218 l 426 1251 z m 592 1033 l 729 1033 l 935 1217 l 751 1250 z m 525 -17 b 957 413 778 -17 957 161 l 957 954 l 751 954 l 751 421 b 525 169 751 274 657 169 b 297 421 392 169 297 274 l 297 954 l 93 954 l 93 413 b 525 -17 93 161 271 -17 z "},"Ū":{"ha":1049,"x_min":0,"x_max":0,"o":"m 285 1043 l 764 1043 l 764 1163 l 285 1163 z m 525 -17 b 957 413 778 -17 957 161 l 957 954 l 751 954 l 751 421 b 525 169 751 274 657 169 b 297 421 392 169 297 274 l 297 954 l 93 954 l 93 413 b 525 -17 93 161 271 -17 z "},"Ų":{"ha":1049,"x_min":0,"x_max":0,"o":"m 751 954 l 751 421 b 525 169 751 274 657 169 b 297 421 392 169 297 274 l 297 954 l 93 954 l 93 413 b 414 -4 93 200 221 39 b 392 -86 400 -28 392 -54 b 546 -240 392 -182 456 -240 b 669 -194 596 -240 639 -222 l 633 -100 b 582 -118 622 -111 603 -118 b 518 -61 543 -118 518 -99 b 536 -17 518 -43 525 -28 b 957 413 783 -11 957 165 l 957 954 z "},"Ů":{"ha":1049,"x_min":0,"x_max":0,"o":"m 525 1043 b 683 1200 613 1043 683 1113 b 525 1358 683 1288 613 1358 b 367 1200 438 1358 367 1288 b 525 1043 367 1113 438 1043 z m 525 1126 b 451 1200 485 1126 451 1160 b 525 1274 451 1240 485 1274 b 599 1200 565 1274 599 1240 b 525 1126 599 1160 565 1126 z m 525 -17 b 957 413 778 -17 957 161 l 957 954 l 751 954 l 751 421 b 525 169 751 274 657 169 b 297 421 392 169 297 274 l 297 954 l 93 954 l 93 413 b 525 -17 93 161 271 -17 z "},"V":{"ha":1043,"x_min":0,"x_max":0,"o":"m 796 954 l 522 282 l 249 954 l 18 954 l 407 0 l 636 0 l 1025 954 z "},"W":{"ha":1497,"x_min":0,"x_max":0,"o":"m 317 0 l 524 0 l 750 656 l 975 0 l 1181 0 l 1469 954 l 1247 954 l 1071 314 l 860 954 l 638 954 l 426 314 l 250 954 l 28 954 z "},"Ẃ":{"ha":1497,"x_min":0,"x_max":0,"o":"m 678 1035 l 815 1035 l 1021 1218 l 839 1251 z m 317 0 l 524 0 l 750 656 l 975 0 l 1181 0 l 1469 954 l 1247 954 l 1071 314 l 860 954 l 638 954 l 426 314 l 250 954 l 28 954 z "},"Ŵ":{"ha":1497,"x_min":0,"x_max":0,"o":"m 521 1035 l 646 1035 l 750 1138 l 856 1035 l 982 1035 l 835 1239 l 667 1239 z m 317 0 l 524 0 l 750 656 l 975 0 l 1181 0 l 1469 954 l 1247 954 l 1071 314 l 860 954 l 638 954 l 426 314 l 250 954 l 28 954 z "},"Ẅ":{"ha":1497,"x_min":0,"x_max":0,"o":"m 604 1047 b 701 1144 657 1047 701 1092 b 604 1242 701 1197 657 1242 b 506 1144 547 1242 506 1197 b 604 1047 506 1092 547 1047 z m 897 1047 b 994 1144 951 1047 994 1092 b 897 1242 994 1197 951 1242 b 800 1144 843 1242 800 1197 b 897 1047 800 1092 843 1047 z m 317 0 l 524 0 l 750 656 l 975 0 l 1181 0 l 1469 954 l 1247 954 l 1071 314 l 860 954 l 638 954 l 426 314 l 250 954 l 28 954 z "},"Ẁ":{"ha":1497,"x_min":0,"x_max":0,"o":"m 682 1035 l 819 1035 l 658 1251 l 476 1218 z m 317 0 l 524 0 l 750 656 l 975 0 l 1181 0 l 1469 954 l 1247 954 l 1071 314 l 860 954 l 638 954 l 426 314 l 250 954 l 28 954 z "},"X":{"ha":988,"x_min":0,"x_max":0,"o":"m 964 954 l 725 954 l 496 642 l 267 954 l 25 954 l 374 475 l 25 0 l 263 0 l 493 313 l 721 0 l 964 0 l 614 479 z "},"Y":{"ha":964,"x_min":0,"x_max":0,"o":"m 379 0 l 586 0 l 586 344 l 958 954 l 729 954 l 482 536 l 244 954 l 6 954 l 379 344 z "},"Ý":{"ha":964,"x_min":0,"x_max":0,"o":"m 339 1035 l 476 1035 l 682 1218 l 500 1251 z m 379 0 l 586 0 l 586 344 l 958 954 l 729 954 l 482 536 l 244 954 l 6 954 l 379 344 z "},"Ŷ":{"ha":964,"x_min":0,"x_max":0,"o":"m 253 1035 l 378 1035 l 482 1138 l 588 1035 l 714 1035 l 567 1239 l 399 1239 z m 379 0 l 586 0 l 586 344 l 958 954 l 729 954 l 482 536 l 244 954 l 6 954 l 379 344 z "},"Ÿ":{"ha":964,"x_min":0,"x_max":0,"o":"m 336 1047 b 433 1144 389 1047 433 1092 b 336 1242 433 1197 389 1242 b 238 1144 279 1242 238 1197 b 336 1047 238 1092 279 1047 z m 629 1047 b 726 1144 683 1047 726 1092 b 629 1242 726 1197 683 1242 b 532 1144 575 1242 532 1197 b 629 1047 532 1092 575 1047 z m 379 0 l 586 0 l 586 344 l 958 954 l 729 954 l 482 536 l 244 954 l 6 954 l 379 344 z "},"Ỳ":{"ha":964,"x_min":0,"x_max":0,"o":"m 475 1035 l 613 1035 l 451 1251 l 269 1218 z m 379 0 l 586 0 l 586 344 l 958 954 l 729 954 l 482 536 l 244 954 l 6 954 l 379 344 z "},"Z":{"ha":918,"x_min":0,"x_max":0,"o":"m 67 0 l 854 0 l 854 185 l 347 185 l 849 799 l 849 954 l 76 954 l 76 769 l 567 769 l 65 156 z "},"Ź":{"ha":918,"x_min":0,"x_max":0,"o":"m 322 1035 l 460 1035 l 665 1218 l 483 1251 z m 67 0 l 854 0 l 854 185 l 347 185 l 849 799 l 849 954 l 76 954 l 76 769 l 567 769 l 65 156 z "},"Ž":{"ha":918,"x_min":0,"x_max":0,"o":"m 382 1035 l 550 1035 l 697 1239 l 571 1239 l 465 1135 l 361 1239 l 236 1239 z m 67 0 l 854 0 l 854 185 l 347 185 l 849 799 l 849 954 l 76 954 l 76 769 l 567 769 l 65 156 z "},"Ż":{"ha":918,"x_min":0,"x_max":0,"o":"m 465 1047 b 563 1144 518 1047 563 1092 b 465 1242 563 1197 518 1242 b 367 1144 408 1242 367 1197 b 465 1047 367 1092 408 1047 z m 67 0 l 854 0 l 854 185 l 347 185 l 849 799 l 849 954 l 76 954 l 76 769 l 567 769 l 65 156 z "},"a":{"ha":807,"x_min":0,"x_max":0,"o":"m 410 735 b 110 656 310 735 211 707 l 178 521 b 364 572 235 550 297 572 b 529 429 482 572 529 506 l 529 415 b 346 451 468 439 404 451 b 47 213 179 451 47 354 b 318 -17 47 75 165 -17 b 529 72 396 -17 478 14 l 529 0 l 725 0 l 725 429 b 410 735 725 617 597 735 z m 364 124 b 243 218 294 124 243 160 b 375 319 243 276 301 319 b 529 293 431 319 483 310 l 529 226 b 364 124 515 160 442 124 z "},"á":{"ha":807,"x_min":0,"x_max":0,"o":"m 617 982 l 435 1015 l 274 799 l 411 799 z m 410 735 b 110 656 310 735 211 707 l 178 521 b 364 572 235 550 297 572 b 529 429 482 572 529 506 l 529 415 b 346 451 468 439 404 451 b 47 213 179 451 47 354 b 318 -17 47 75 165 -17 b 529 72 396 -17 478 14 l 529 0 l 725 0 l 725 429 b 410 735 725 617 597 735 z m 364 124 b 243 218 294 124 243 160 b 375 319 243 276 301 319 b 529 293 431 319 483 310 l 529 226 b 364 124 515 160 442 124 z "},"ă":{"ha":807,"x_min":0,"x_max":0,"o":"m 640 899 l 553 986 b 417 928 515 950 464 928 b 281 986 369 928 318 950 l 193 899 b 417 807 256 838 336 807 b 640 899 497 807 579 838 z m 410 735 b 110 656 310 735 211 707 l 178 521 b 364 572 235 550 297 572 b 529 429 482 572 529 506 l 529 415 b 346 451 468 439 404 451 b 47 213 179 451 47 354 b 318 -17 47 75 165 -17 b 529 72 396 -17 478 14 l 529 0 l 725 0 l 725 429 b 410 735 725 617 597 735 z m 364 124 b 243 218 294 124 243 160 b 375 319 243 276 301 319 b 529 293 431 319 483 310 l 529 226 b 364 124 515 160 442 124 z "},"â":{"ha":807,"x_min":0,"x_max":0,"o":"m 417 901 l 522 799 l 649 799 l 501 1003 l 333 1003 l 188 799 l 313 799 z m 410 735 b 110 656 310 735 211 707 l 178 521 b 364 572 235 550 297 572 b 529 429 482 572 529 506 l 529 415 b 346 451 468 439 404 451 b 47 213 179 451 47 354 b 318 -17 47 75 165 -17 b 529 72 396 -17 478 14 l 529 0 l 725 0 l 725 429 b 410 735 725 617 597 735 z m 364 124 b 243 218 294 124 243 160 b 375 319 243 276 301 319 b 529 293 431 319 483 310 l 529 226 b 364 124 515 160 442 124 z "},"ä":{"ha":807,"x_min":0,"x_max":0,"o":"m 271 811 b 368 908 324 811 368 856 b 271 1006 368 961 324 1006 b 172 908 214 1006 172 961 b 271 811 172 856 214 811 z m 564 811 b 661 908 618 811 661 856 b 564 1006 661 961 618 1006 b 467 908 510 1006 467 961 b 564 811 467 856 510 811 z m 410 735 b 110 656 310 735 211 707 l 178 521 b 364 572 235 550 297 572 b 529 429 482 572 529 506 l 529 415 b 346 451 468 439 404 451 b 47 213 179 451 47 354 b 318 -17 47 75 165 -17 b 529 72 396 -17 478 14 l 529 0 l 725 0 l 725 429 b 410 735 725 617 597 735 z m 364 124 b 243 218 294 124 243 160 b 375 319 243 276 301 319 b 529 293 431 319 483 310 l 529 226 b 364 124 515 160 442 124 z "},"à":{"ha":807,"x_min":0,"x_max":0,"o":"m 547 799 l 386 1015 l 204 982 l 410 799 z m 410 735 b 110 656 310 735 211 707 l 178 521 b 364 572 235 550 297 572 b 529 429 482 572 529 506 l 529 415 b 346 451 468 439 404 451 b 47 213 179 451 47 354 b 318 -17 47 75 165 -17 b 529 72 396 -17 478 14 l 529 0 l 725 0 l 725 429 b 410 735 725 617 597 735 z m 364 124 b 243 218 294 124 243 160 b 375 319 243 276 301 319 b 529 293 431 319 483 310 l 529 226 b 364 124 515 160 442 124 z "},"ā":{"ha":807,"x_min":0,"x_max":0,"o":"m 656 926 l 176 926 l 176 807 l 656 807 z m 410 735 b 110 656 310 735 211 707 l 178 521 b 364 572 235 550 297 572 b 529 429 482 572 529 506 l 529 415 b 346 451 468 439 404 451 b 47 213 179 451 47 354 b 318 -17 47 75 165 -17 b 529 72 396 -17 478 14 l 529 0 l 725 0 l 725 429 b 410 735 725 617 597 735 z m 364 124 b 243 218 294 124 243 160 b 375 319 243 276 301 319 b 529 293 431 319 483 310 l 529 226 b 364 124 515 160 442 124 z "},"ą":{"ha":807,"x_min":0,"x_max":0,"o":"m 776 -100 b 725 -118 765 -111 746 -118 b 661 -61 686 -118 661 -99 b 725 0 661 -26 686 0 l 725 429 b 410 735 725 617 597 735 b 110 656 310 735 211 707 l 178 521 b 364 572 235 550 297 572 b 529 429 482 572 529 506 l 529 415 b 346 451 468 439 404 451 b 47 213 179 451 47 354 b 318 -17 47 75 165 -17 b 529 72 396 -17 478 14 l 529 0 l 560 0 b 535 -86 544 -24 535 -53 b 689 -240 535 -182 599 -240 b 813 -194 739 -240 782 -222 z m 364 124 b 243 218 294 124 243 160 b 375 319 243 276 301 319 b 529 293 431 319 483 310 l 529 226 b 364 124 515 160 442 124 z "},"å":{"ha":807,"x_min":0,"x_max":0,"o":"m 417 807 b 575 964 504 807 575 876 b 417 1122 575 1051 504 1122 b 258 964 329 1122 258 1051 b 417 807 258 876 329 807 z m 417 1038 b 490 964 457 1038 490 1004 b 417 890 490 924 457 890 b 343 964 376 890 343 924 b 417 1038 343 1004 376 1038 z m 410 735 b 110 656 310 735 211 707 l 178 521 b 364 572 235 550 297 572 b 529 429 482 572 529 506 l 529 415 b 346 451 468 439 404 451 b 47 213 179 451 47 354 b 318 -17 47 75 165 -17 b 529 72 396 -17 478 14 l 529 0 l 725 0 l 725 429 b 410 735 725 617 597 735 z m 364 124 b 243 218 294 124 243 160 b 375 319 243 276 301 319 b 529 293 431 319 483 310 l 529 226 b 364 124 515 160 442 124 z "},"ã":{"ha":807,"x_min":0,"x_max":0,"o":"m 328 867 b 510 796 374 867 432 796 b 664 979 601 796 650 857 l 564 993 b 506 921 554 943 536 921 b 322 992 461 921 400 992 b 168 808 232 992 183 929 l 269 793 b 328 867 279 844 297 867 z m 410 735 b 110 656 310 735 211 707 l 178 521 b 364 572 235 550 297 572 b 529 429 482 572 529 506 l 529 415 b 346 451 468 439 404 451 b 47 213 179 451 47 354 b 318 -17 47 75 165 -17 b 529 72 396 -17 478 14 l 529 0 l 725 0 l 725 429 b 410 735 725 617 597 735 z m 364 124 b 243 218 294 124 243 160 b 375 319 243 276 301 319 b 529 293 431 319 483 310 l 529 226 b 364 124 515 160 442 124 z "},"æ":{"ha":1303,"x_min":0,"x_max":0,"o":"m 908 163 b 738 293 824 163 761 215 l 1256 293 b 899 735 1256 564 1124 735 b 633 628 793 735 700 694 b 393 735 585 694 501 735 b 110 656 293 735 211 707 l 178 521 b 364 572 235 550 297 572 b 529 429 482 572 529 506 l 529 415 b 346 451 468 439 404 451 b 47 213 179 451 47 354 b 349 -17 47 74 167 -17 b 626 103 471 -17 568 28 b 910 -17 696 28 796 -17 b 1203 94 1015 -17 1139 28 l 1074 226 b 908 163 1035 189 965 163 z m 907 556 b 1061 439 989 556 1042 510 l 740 439 b 907 556 767 511 831 556 z m 369 124 b 243 218 292 124 243 160 b 375 319 243 276 301 319 b 529 293 431 319 483 310 l 529 249 b 369 124 529 176 463 124 z "},"b":{"ha":917,"x_min":0,"x_max":0,"o":"m 532 735 b 292 618 432 735 349 692 l 292 971 l 89 971 l 89 0 l 292 0 l 292 101 b 532 -17 349 26 432 -17 b 863 360 724 -17 863 139 b 532 735 863 579 724 735 z m 474 154 b 292 332 375 154 303 226 l 292 388 b 474 564 303 492 375 564 b 665 360 586 564 665 479 b 474 154 665 239 586 154 z "},"c":{"ha":761,"x_min":0,"x_max":0,"o":"m 440 -17 b 728 110 560 -17 657 32 l 593 224 b 442 154 556 182 497 154 b 246 361 335 154 246 249 b 440 564 246 471 335 564 b 589 497 496 564 553 538 l 724 613 b 442 735 654 688 558 735 b 49 360 229 735 49 564 b 440 -17 49 156 228 -17 z "},"ć":{"ha":761,"x_min":0,"x_max":0,"o":"m 269 799 l 407 799 l 613 982 l 431 1015 z m 440 -17 b 728 110 560 -17 657 32 l 593 224 b 442 154 556 182 497 154 b 246 361 335 154 246 249 b 440 564 246 471 335 564 b 589 497 496 564 553 538 l 724 613 b 442 735 654 688 558 735 b 49 360 229 735 49 564 b 440 -17 49 156 228 -17 z "},"č":{"ha":761,"x_min":0,"x_max":0,"o":"m 329 799 l 497 799 l 644 1003 l 518 1003 l 413 899 l 308 1003 l 183 1003 z m 440 -17 b 728 110 560 -17 657 32 l 593 224 b 442 154 556 182 497 154 b 246 361 335 154 246 249 b 440 564 246 471 335 564 b 589 497 496 564 553 538 l 724 613 b 442 735 654 688 558 735 b 49 360 229 735 49 564 b 440 -17 49 156 228 -17 z "},"ç":{"ha":761,"x_min":0,"x_max":0,"o":"m 728 110 l 593 224 b 442 154 556 182 497 154 b 246 361 335 154 246 249 b 440 564 246 471 335 564 b 589 497 496 564 553 538 l 724 613 b 442 735 654 688 558 735 b 49 360 229 735 49 564 b 381 -12 49 175 194 17 l 347 -89 l 378 -118 b 419 -106 390 -110 406 -106 b 465 -143 449 -106 465 -121 b 407 -185 465 -168 439 -185 b 322 -153 378 -185 347 -174 l 286 -233 b 418 -274 317 -256 367 -274 b 568 -154 504 -274 568 -228 b 464 -60 568 -99 525 -60 l 482 -15 b 728 110 582 -4 665 42 z "},"d":{"ha":917,"x_min":0,"x_max":0,"o":"m 625 971 l 625 615 b 383 735 568 690 485 735 b 53 360 192 735 53 579 b 383 -17 53 139 192 -17 b 625 103 485 -17 568 28 l 625 0 l 828 0 l 828 971 z m 442 154 b 250 360 329 154 250 239 b 442 564 250 479 329 564 b 625 360 549 564 625 479 b 442 154 625 239 549 154 z "},"ð":{"ha":878,"x_min":0,"x_max":0,"o":"m 581 854 l 656 888 l 608 994 l 483 939 b 396 1008 456 961 426 985 l 214 931 b 314 864 249 908 281 886 l 226 825 l 275 718 l 419 782 b 588 586 493 721 551 657 b 375 686 533 649 467 686 b 63 347 192 686 63 546 b 440 -17 63 135 219 -17 b 818 389 663 -17 818 151 b 581 854 818 568 740 704 z m 442 156 b 260 340 335 156 260 232 b 439 522 260 446 333 522 b 621 339 550 522 621 440 b 442 156 621 231 547 156 z "},"ď":{"ha":917,"x_min":0,"x_max":0,"o":"m 625 615 b 383 735 568 690 485 735 b 53 360 192 735 53 579 b 383 -17 53 139 192 -17 b 625 103 485 -17 568 28 l 625 0 l 828 0 l 828 971 l 625 971 z m 1014 971 b 919 874 961 971 919 928 b 1011 778 919 822 961 778 b 946 675 1003 743 979 707 l 1003 632 b 1115 839 1079 708 1115 775 b 1014 971 1115 915 1075 971 z m 442 154 b 250 360 329 154 250 239 b 442 564 250 479 329 564 b 625 360 549 564 625 479 b 442 154 625 239 549 154 z "},"đ":{"ha":953,"x_min":0,"x_max":0,"o":"m 911 899 l 828 899 l 828 971 l 625 971 l 625 899 l 414 899 l 414 796 l 625 796 l 625 615 b 383 735 568 690 485 735 b 53 360 192 735 53 579 b 383 -17 53 139 192 -17 b 625 103 485 -17 568 28 l 625 0 l 828 0 l 828 796 l 911 796 z m 442 154 b 250 360 329 154 250 239 b 442 564 250 479 329 564 b 625 360 549 564 625 479 b 442 154 625 239 549 154 z "},"e":{"ha":824,"x_min":0,"x_max":0,"o":"m 428 163 b 257 293 343 163 281 215 l 775 293 b 418 735 775 564 643 735 b 49 361 208 735 49 578 b 429 -17 49 140 215 -17 b 722 94 535 -17 658 28 l 593 226 b 428 163 554 189 485 163 z m 426 556 b 581 439 508 556 561 510 l 260 439 b 426 556 286 511 350 556 z "},"é":{"ha":824,"x_min":0,"x_max":0,"o":"m 618 982 l 436 1015 l 275 799 l 413 799 z m 428 163 b 257 293 343 163 281 215 l 775 293 b 418 735 775 564 643 735 b 49 361 208 735 49 578 b 429 -17 49 140 215 -17 b 722 94 535 -17 658 28 l 593 226 b 428 163 554 189 485 163 z m 426 556 b 581 439 508 556 561 510 l 260 439 b 426 556 286 511 350 556 z "},"ě":{"ha":824,"x_min":0,"x_max":0,"o":"m 503 799 l 650 1003 l 524 1003 l 418 899 l 314 1003 l 189 1003 l 335 799 z m 428 163 b 257 293 343 163 281 215 l 775 293 b 418 735 775 564 643 735 b 49 361 208 735 49 578 b 429 -17 49 140 215 -17 b 722 94 535 -17 658 28 l 593 226 b 428 163 554 189 485 163 z m 426 556 b 581 439 508 556 561 510 l 260 439 b 426 556 286 511 350 556 z "},"ê":{"ha":824,"x_min":0,"x_max":0,"o":"m 418 901 l 524 799 l 650 799 l 503 1003 l 335 1003 l 189 799 l 314 799 z m 428 163 b 257 293 343 163 281 215 l 775 293 b 418 735 775 564 643 735 b 49 361 208 735 49 578 b 429 -17 49 140 215 -17 b 722 94 535 -17 658 28 l 593 226 b 428 163 554 189 485 163 z m 426 556 b 581 439 508 556 561 510 l 260 439 b 426 556 286 511 350 556 z "},"ë":{"ha":824,"x_min":0,"x_max":0,"o":"m 272 811 b 369 908 325 811 369 856 b 272 1006 369 961 325 1006 b 174 908 215 1006 174 961 b 272 811 174 856 215 811 z m 565 811 b 663 908 619 811 663 856 b 565 1006 663 961 619 1006 b 468 908 511 1006 468 961 b 565 811 468 856 511 811 z m 428 163 b 257 293 343 163 281 215 l 775 293 b 418 735 775 564 643 735 b 49 361 208 735 49 578 b 429 -17 49 140 215 -17 b 722 94 535 -17 658 28 l 593 226 b 428 163 554 189 485 163 z m 426 556 b 581 439 508 556 561 510 l 260 439 b 426 556 286 511 350 556 z "},"ė":{"ha":824,"x_min":0,"x_max":0,"o":"m 418 811 b 515 908 471 811 515 856 b 418 1006 515 961 471 1006 b 319 908 361 1006 319 961 b 418 811 319 856 361 811 z m 428 163 b 257 293 343 163 281 215 l 775 293 b 418 735 775 564 643 735 b 49 361 208 735 49 578 b 429 -17 49 140 215 -17 b 722 94 535 -17 658 28 l 593 226 b 428 163 554 189 485 163 z m 426 556 b 581 439 508 556 561 510 l 260 439 b 426 556 286 511 350 556 z "},"ẹ":{"ha":822,"x_min":0,"x_max":0,"o":"m 428 163 b 257 293 343 163 281 215 l 775 293 b 418 735 775 564 643 735 b 49 361 208 735 49 578 b 429 -17 49 140 215 -17 b 722 94 535 -17 658 28 l 593 226 b 428 163 554 189 485 163 z m 426 556 b 581 439 508 556 561 510 l 260 439 b 426 556 286 511 350 556 z m 415 -99 b 317 -196 358 -99 317 -143 b 415 -293 317 -249 358 -293 b 513 -196 468 -293 513 -249 b 415 -99 513 -143 468 -99 z "},"è":{"ha":824,"x_min":0,"x_max":0,"o":"m 549 799 l 388 1015 l 206 982 l 411 799 z m 428 163 b 257 293 343 163 281 215 l 775 293 b 418 735 775 564 643 735 b 49 361 208 735 49 578 b 429 -17 49 140 215 -17 b 722 94 535 -17 658 28 l 593 226 b 428 163 554 189 485 163 z m 426 556 b 581 439 508 556 561 510 l 260 439 b 426 556 286 511 350 556 z "},"ē":{"ha":824,"x_min":0,"x_max":0,"o":"m 657 926 l 178 926 l 178 807 l 657 807 z m 428 163 b 257 293 343 163 281 215 l 775 293 b 418 735 775 564 643 735 b 49 361 208 735 49 578 b 429 -17 49 140 215 -17 b 722 94 535 -17 658 28 l 593 226 b 428 163 554 189 485 163 z m 426 556 b 581 439 508 556 561 510 l 260 439 b 426 556 286 511 350 556 z "},"ę":{"ha":822,"x_min":0,"x_max":0,"o":"m 722 94 l 593 226 b 428 163 554 189 485 163 b 257 293 343 163 281 215 l 775 293 b 418 735 775 564 643 735 b 49 361 208 735 49 578 b 429 -17 49 140 215 -17 l 449 -17 b 444 -53 446 -28 444 -40 b 599 -207 444 -149 508 -207 b 722 -161 649 -207 692 -189 l 686 -67 b 635 -85 675 -78 656 -85 b 571 -28 596 -85 571 -65 b 585 11 571 -12 575 1 b 722 94 639 31 689 60 z m 426 556 b 581 439 508 556 561 510 l 260 439 b 426 556 286 511 350 556 z "},"ẽ":{"ha":824,"x_min":0,"x_max":0,"o":"m 329 867 b 511 796 375 867 433 796 b 665 979 603 796 651 857 l 565 993 b 507 921 556 943 538 921 b 324 992 463 921 401 992 b 169 808 233 992 185 929 l 271 793 b 329 867 281 844 299 867 z m 428 163 b 257 293 343 163 281 215 l 775 293 b 418 735 775 564 643 735 b 49 361 208 735 49 578 b 429 -17 49 140 215 -17 b 722 94 535 -17 658 28 l 593 226 b 428 163 554 189 485 163 z m 426 556 b 581 439 508 556 561 510 l 260 439 b 426 556 286 511 350 556 z "},"f":{"ha":526,"x_min":0,"x_max":0,"o":"m 329 757 b 397 838 329 804 360 838 b 467 814 425 838 453 828 l 515 938 b 350 1000 474 975 408 1000 b 135 781 224 1000 135 910 l 135 718 l 36 718 l 36 554 l 135 554 l 135 0 l 329 0 l 329 554 l 485 554 l 485 718 l 329 718 z "},"g":{"ha":901,"x_min":0,"x_max":0,"o":"m 608 718 l 608 621 b 371 735 560 689 468 735 b 53 394 190 735 53 594 b 371 53 53 194 190 53 b 608 164 465 53 551 94 l 608 85 b 394 -68 608 -8 525 -68 b 181 0 311 -68 228 -42 l 110 -143 b 426 -239 181 -199 300 -239 b 813 76 653 -239 813 -108 l 813 718 z m 435 224 b 261 394 333 224 261 294 b 435 564 261 494 333 564 b 608 394 536 564 608 494 b 435 224 608 294 536 224 z "},"ğ":{"ha":901,"x_min":0,"x_max":0,"o":"m 692 899 l 604 986 b 468 928 567 950 515 928 b 332 986 421 928 369 950 l 244 899 b 468 807 307 838 388 807 b 692 899 549 807 631 838 z m 608 718 l 608 621 b 371 735 560 689 468 735 b 53 394 190 735 53 594 b 371 53 53 194 190 53 b 608 164 465 53 551 94 l 608 85 b 394 -68 608 -8 525 -68 b 181 0 311 -68 228 -42 l 110 -143 b 426 -239 181 -199 300 -239 b 813 76 653 -239 813 -108 l 813 718 z m 435 224 b 261 394 333 224 261 294 b 435 564 261 494 333 564 b 608 394 536 564 608 494 b 435 224 608 294 536 224 z "},"ģ":{"ha":901,"x_min":0,"x_max":0,"o":"m 442 813 b 536 910 494 813 536 856 b 444 1006 536 961 494 1006 b 510 1108 453 1040 476 1076 l 453 1151 b 340 944 376 1075 340 1008 b 442 813 340 868 381 813 z m 608 718 l 608 621 b 371 735 560 689 468 735 b 53 394 190 735 53 594 b 371 53 53 194 190 53 b 608 164 465 53 551 94 l 608 85 b 394 -68 608 -8 525 -68 b 181 0 311 -68 228 -42 l 110 -143 b 426 -239 181 -199 300 -239 b 813 76 653 -239 813 -108 l 813 718 z m 435 224 b 261 394 333 224 261 294 b 435 564 261 494 333 564 b 608 394 536 564 608 494 b 435 224 608 294 536 224 z "},"h":{"ha":853,"x_min":0,"x_max":0,"o":"m 504 735 b 289 631 413 735 333 693 l 289 971 l 86 971 l 86 0 l 289 0 l 289 425 b 439 564 289 503 354 564 b 575 414 519 564 575 503 l 575 0 l 771 0 l 771 457 b 504 735 771 619 660 735 z "},"i":{"ha":378,"x_min":0,"x_max":0,"o":"m 190 817 b 299 928 250 817 299 867 b 190 1036 299 985 250 1036 b 79 928 128 1036 79 985 b 190 817 79 867 128 817 z m 88 0 l 290 0 l 290 718 l 88 718 z "},"ı":{"ha":378,"x_min":0,"x_max":0,"o":"m 88 0 l 290 0 l 290 718 l 88 718 z "},"í":{"ha":378,"x_min":0,"x_max":0,"o":"m 118 799 l 256 799 l 461 982 l 279 1015 z m 88 0 l 290 0 l 290 718 l 88 718 z "},"î":{"ha":378,"x_min":0,"x_max":0,"o":"m -40 799 l 85 799 l 189 901 l 294 799 l 421 799 l 274 1003 l 106 1003 z m 88 0 l 290 0 l 290 718 l 88 718 z "},"ï":{"ha":378,"x_min":0,"x_max":0,"o":"m 43 811 b 140 908 96 811 140 856 b 43 1006 140 961 96 1006 b -56 908 -14 1006 -56 961 b 43 811 -56 856 -14 811 z m 336 811 b 433 908 390 811 433 856 b 336 1006 433 961 390 1006 b 239 908 282 1006 239 961 b 336 811 239 856 282 811 z m 88 0 l 290 0 l 290 718 l 88 718 z "},"ì":{"ha":378,"x_min":0,"x_max":0,"o":"m 121 799 l 258 799 l 97 1015 l -85 982 z m 88 0 l 290 0 l 290 718 l 88 718 z "},"ī":{"ha":378,"x_min":0,"x_max":0,"o":"m -51 807 l 428 807 l 428 926 l -51 926 z m 88 0 l 290 0 l 290 718 l 88 718 z "},"į":{"ha":378,"x_min":0,"x_max":0,"o":"m 189 811 b 286 908 242 811 286 856 b 189 1006 286 961 242 1006 b 90 908 132 1006 90 961 b 189 811 90 856 132 811 z m 189 0 l 290 0 l 290 718 l 88 718 l 88 36 l 71 42 b -1 -86 26 17 -1 -28 b 153 -240 -1 -182 63 -240 b 276 -194 203 -240 246 -222 l 240 -100 b 189 -118 229 -111 210 -118 b 125 -61 150 -118 125 -99 b 189 0 125 -26 150 0 z "},"j":{"ha":378,"x_min":0,"x_max":0,"o":"m 190 817 b 299 928 250 817 299 867 b 190 1036 299 985 250 1036 b 79 928 128 1036 79 985 b 190 817 79 867 128 817 z m 67 -247 b 290 -21 197 -247 290 -153 l 290 718 l 88 718 l 88 0 b 19 -81 88 -47 60 -81 b -56 -68 -6 -81 -36 -75 l -76 -218 b 67 -247 -42 -235 17 -247 z "},"ȷ":{"ha":378,"x_min":0,"x_max":0,"o":"m 67 -247 b 290 -21 197 -247 290 -153 l 290 718 l 88 718 l 88 0 b 19 -81 88 -47 60 -81 b -56 -68 -6 -81 -36 -75 l -76 -218 b 67 -247 -42 -235 17 -247 z "},"k":{"ha":793,"x_min":0,"x_max":0,"o":"m 788 718 l 554 718 l 288 408 l 288 971 l 85 971 l 85 0 l 288 0 l 288 176 l 374 269 l 551 0 l 785 0 l 508 400 z "},"ķ":{"ha":793,"x_min":0,"x_max":0,"o":"m 788 718 l 554 718 l 288 408 l 288 971 l 85 971 l 85 0 l 288 0 l 288 176 l 374 269 l 551 0 l 785 0 l 508 400 z m 413 -65 b 318 -162 360 -65 318 -108 b 410 -258 318 -214 360 -258 b 344 -361 401 -293 378 -329 l 401 -404 b 514 -197 478 -328 514 -261 b 413 -65 514 -121 474 -65 z "},"l":{"ha":379,"x_min":0,"x_max":0,"o":"m 89 0 l 292 0 l 292 971 l 89 971 z "},"ĺ":{"ha":379,"x_min":0,"x_max":0,"o":"m 118 1051 l 256 1051 l 461 1235 l 279 1268 z m 89 0 l 292 0 l 292 971 l 89 971 z "},"ľ":{"ha":379,"x_min":0,"x_max":0,"o":"m 89 0 l 292 0 l 292 971 l 89 971 z m 467 632 b 579 839 543 708 579 775 b 478 971 579 915 539 971 b 383 874 425 971 383 928 b 475 778 383 822 425 778 b 410 675 467 743 443 707 z "},"ł":{"ha":490,"x_min":0,"x_max":0,"o":"m 456 669 l 346 615 l 346 971 l 143 971 l 143 514 l 36 460 l 36 278 l 143 332 l 143 0 l 346 0 l 346 433 l 456 489 z "},"m":{"ha":1290,"x_min":0,"x_max":0,"o":"m 943 735 b 710 604 836 735 747 683 b 482 735 665 685 581 735 b 288 624 393 735 322 692 l 288 718 l 85 718 l 85 0 l 288 0 l 288 433 b 426 564 288 510 344 564 b 553 422 500 564 553 506 l 553 -1 l 747 -1 l 747 433 b 886 564 747 510 806 564 b 1014 422 961 564 1014 506 l 1014 -1 l 1208 -1 l 1208 457 b 943 735 1208 619 1093 735 z "},"n":{"ha":853,"x_min":0,"x_max":0,"o":"m 504 735 b 288 628 411 735 331 693 l 288 718 l 85 718 l 85 0 l 288 0 l 288 429 l 289 425 b 439 564 289 503 354 564 b 575 414 519 564 575 503 l 575 0 l 771 0 l 771 457 b 504 735 771 619 660 735 z "},"ń":{"ha":853,"x_min":0,"x_max":0,"o":"m 643 982 l 461 1015 l 300 799 l 438 799 z m 504 735 b 288 628 411 735 331 693 l 288 718 l 85 718 l 85 0 l 288 0 l 288 429 l 289 425 b 439 564 289 503 354 564 b 575 414 519 564 575 503 l 575 0 l 771 0 l 771 457 b 504 735 771 619 660 735 z "},"ň":{"ha":853,"x_min":0,"x_max":0,"o":"m 528 799 l 675 1003 l 549 1003 l 443 899 l 339 1003 l 214 1003 l 360 799 z m 504 735 b 288 628 411 735 331 693 l 288 718 l 85 718 l 85 0 l 288 0 l 288 429 l 289 425 b 439 564 289 503 354 564 b 575 414 519 564 575 503 l 575 0 l 771 0 l 771 457 b 504 735 771 619 660 735 z "},"ņ":{"ha":853,"x_min":0,"x_max":0,"o":"m 504 735 b 288 628 411 735 331 693 l 288 718 l 85 718 l 85 0 l 288 0 l 288 429 l 289 425 b 439 564 289 503 354 564 b 575 414 519 564 575 503 l 575 0 l 771 0 l 771 457 b 504 735 771 619 660 735 z m 443 -65 b 349 -162 390 -65 349 -108 b 440 -258 349 -214 390 -258 b 375 -361 432 -293 408 -329 l 432 -404 b 544 -197 508 -328 544 -261 b 443 -65 544 -121 504 -65 z "},"ñ":{"ha":853,"x_min":0,"x_max":0,"o":"m 354 867 b 536 796 400 867 458 796 b 690 979 628 796 676 857 l 590 993 b 532 921 581 943 563 921 b 349 992 488 921 426 992 b 194 808 258 992 210 929 l 296 793 b 354 867 306 844 324 867 z m 504 735 b 288 628 411 735 331 693 l 288 718 l 85 718 l 85 0 l 288 0 l 288 429 l 289 425 b 439 564 289 503 354 564 b 575 414 519 564 575 503 l 575 0 l 771 0 l 771 457 b 504 735 771 619 660 735 z "},"o":{"ha":881,"x_min":0,"x_max":0,"o":"m 442 -17 b 832 360 654 -17 832 156 b 442 735 832 564 654 735 b 49 360 228 735 49 564 b 442 -17 49 156 228 -17 z m 442 154 b 243 360 333 154 243 249 b 442 564 243 471 333 564 b 639 360 549 564 639 471 b 442 154 639 249 549 154 z "},"ó":{"ha":881,"x_min":0,"x_max":0,"o":"m 299 799 l 436 799 l 642 982 l 460 1015 z m 442 -17 b 832 360 654 -17 832 156 b 442 735 832 564 654 735 b 49 360 228 735 49 564 b 442 -17 49 156 228 -17 z m 442 154 b 243 360 333 154 243 249 b 442 564 243 471 333 564 b 639 360 549 564 639 471 b 442 154 639 249 549 154 z "},"ô":{"ha":881,"x_min":0,"x_max":0,"o":"m 213 799 l 338 799 l 442 901 l 547 799 l 674 799 l 526 1003 l 358 1003 z m 442 -17 b 832 360 654 -17 832 156 b 442 735 832 564 654 735 b 49 360 228 735 49 564 b 442 -17 49 156 228 -17 z m 442 154 b 243 360 333 154 243 249 b 442 564 243 471 333 564 b 639 360 549 564 639 471 b 442 154 639 249 549 154 z "},"ö":{"ha":881,"x_min":0,"x_max":0,"o":"m 296 811 b 393 908 349 811 393 856 b 296 1006 393 961 349 1006 b 197 908 239 1006 197 961 b 296 811 197 856 239 811 z m 589 811 b 686 908 643 811 686 856 b 589 1006 686 961 643 1006 b 492 908 535 1006 492 961 b 589 811 492 856 535 811 z m 442 -17 b 832 360 654 -17 832 156 b 442 735 832 564 654 735 b 49 360 228 735 49 564 b 442 -17 49 156 228 -17 z m 442 154 b 243 360 333 154 243 249 b 442 564 243 471 333 564 b 639 360 549 564 639 471 b 442 154 639 249 549 154 z "},"ò":{"ha":881,"x_min":0,"x_max":0,"o":"m 435 799 l 572 799 l 411 1015 l 229 982 z m 442 -17 b 832 360 654 -17 832 156 b 442 735 832 564 654 735 b 49 360 228 735 49 564 b 442 -17 49 156 228 -17 z m 442 154 b 243 360 333 154 243 249 b 442 564 243 471 333 564 b 639 360 549 564 639 471 b 442 154 639 249 549 154 z "},"ő":{"ha":881,"x_min":0,"x_max":0,"o":"m 200 797 l 338 797 l 543 982 l 361 1015 z m 526 797 l 664 797 l 869 981 l 686 1014 z m 442 -17 b 832 360 654 -17 832 156 b 442 735 832 564 654 735 b 49 360 228 735 49 564 b 442 -17 49 156 228 -17 z m 442 154 b 243 360 333 154 243 249 b 442 564 243 471 333 564 b 639 360 549 564 639 471 b 442 154 639 249 549 154 z "},"ō":{"ha":881,"x_min":0,"x_max":0,"o":"m 201 807 l 681 807 l 681 926 l 201 926 z m 442 -17 b 832 360 654 -17 832 156 b 442 735 832 564 654 735 b 49 360 228 735 49 564 b 442 -17 49 156 228 -17 z m 442 154 b 243 360 333 154 243 249 b 442 564 243 471 333 564 b 639 360 549 564 639 471 b 442 154 639 249 549 154 z "},"ø":{"ha":881,"x_min":0,"x_max":0,"o":"m 731 610 l 825 718 l 678 718 l 644 679 b 442 735 585 714 515 735 b 49 360 228 735 49 564 b 151 108 49 264 88 175 l 58 0 l 206 0 l 239 39 b 442 -17 299 4 368 -17 b 832 360 654 -17 832 156 b 731 610 832 454 793 543 z m 243 360 b 442 564 243 471 333 564 b 526 543 472 564 501 557 l 275 250 b 243 360 254 282 243 319 z m 442 154 b 357 175 411 154 382 161 l 608 467 b 639 360 628 436 639 399 b 442 154 639 249 549 154 z "},"õ":{"ha":881,"x_min":0,"x_max":0,"o":"m 535 796 b 689 979 626 796 675 857 l 589 993 b 531 921 579 943 561 921 b 347 992 486 921 425 992 b 193 808 257 992 208 929 l 294 793 b 353 867 304 844 322 867 b 535 796 399 867 457 796 z m 442 -17 b 832 360 654 -17 832 156 b 442 735 832 564 654 735 b 49 360 228 735 49 564 b 442 -17 49 156 228 -17 z m 442 154 b 243 360 333 154 243 249 b 442 564 243 471 333 564 b 639 360 549 564 639 471 b 442 154 639 249 549 154 z "},"œ":{"ha":1417,"x_min":0,"x_max":0,"o":"m 1022 163 b 851 293 938 163 875 215 l 1369 293 b 1013 735 1369 564 1238 735 b 731 610 897 735 797 688 b 442 735 658 686 556 735 b 49 360 228 735 49 564 b 442 -17 49 156 228 -17 b 732 111 556 -17 661 33 b 1024 -17 801 31 906 -17 b 1317 94 1129 -17 1253 28 l 1188 226 b 1022 163 1149 189 1079 163 z m 442 154 b 243 360 333 154 243 249 b 442 564 243 471 333 564 b 639 360 549 564 639 471 b 442 154 639 249 549 154 z m 1021 556 b 1175 439 1103 556 1156 510 l 854 439 b 1021 556 881 511 944 556 z "},"p":{"ha":917,"x_min":0,"x_max":0,"o":"m 532 735 b 292 618 432 735 349 692 l 292 718 l 89 718 l 89 -239 l 292 -239 l 292 101 b 532 -17 349 26 432 -17 b 863 360 724 -17 863 139 b 532 735 863 579 724 735 z m 474 154 b 292 332 375 154 303 226 l 292 388 b 474 564 303 492 375 564 b 665 360 586 564 665 479 b 474 154 665 239 586 154 z "},"þ":{"ha":917,"x_min":0,"x_max":0,"o":"m 532 735 b 292 618 432 735 349 692 l 292 971 l 89 971 l 89 -239 l 292 -239 l 292 101 b 532 -17 349 26 432 -17 b 863 360 724 -17 863 139 b 532 735 863 579 724 735 z m 474 154 b 292 332 375 154 303 226 l 292 388 b 474 564 303 492 375 564 b 665 360 586 564 665 479 b 474 154 665 239 586 154 z "},"q":{"ha":917,"x_min":0,"x_max":0,"o":"m 625 718 l 625 615 b 383 735 568 690 485 735 b 53 360 192 735 53 579 b 383 -17 53 139 192 -17 b 625 103 485 -17 568 28 l 625 -239 l 828 -239 l 828 718 z m 442 154 b 250 360 329 154 250 239 b 442 564 250 479 329 564 b 625 360 549 564 625 479 b 442 154 625 239 549 154 z "},"r":{"ha":565,"x_min":0,"x_max":0,"o":"m 292 585 l 292 718 l 89 718 l 89 0 l 292 0 l 292 343 b 538 564 292 478 388 564 l 538 735 b 292 585 428 735 339 678 z "},"ŕ":{"ha":565,"x_min":0,"x_max":0,"o":"m 515 982 l 333 1015 l 172 799 l 310 799 z m 292 585 l 292 718 l 89 718 l 89 0 l 292 0 l 292 343 b 538 564 292 478 388 564 l 538 735 b 292 585 428 735 339 678 z "},"ř":{"ha":565,"x_min":0,"x_max":0,"o":"m 400 799 l 547 1003 l 421 1003 l 315 899 l 211 1003 l 86 1003 l 232 799 z m 292 585 l 292 718 l 89 718 l 89 0 l 292 0 l 292 343 b 538 564 292 478 388 564 l 538 735 b 292 585 428 735 339 678 z "},"ŗ":{"ha":565,"x_min":0,"x_max":0,"o":"m 292 585 l 292 718 l 89 718 l 89 0 l 292 0 l 292 343 b 538 564 292 478 388 564 l 538 735 b 292 585 428 735 339 678 z m 261 -65 b 167 -162 208 -65 167 -108 b 258 -258 167 -214 208 -258 b 193 -361 250 -293 226 -329 l 250 -404 b 363 -197 326 -328 363 -261 b 261 -65 363 -121 322 -65 z "},"s":{"ha":697,"x_min":0,"x_max":0,"o":"m 358 -17 b 650 215 535 -17 650 74 b 389 446 650 372 513 414 b 263 522 292 472 263 483 b 347 565 263 547 297 565 b 549 501 408 565 483 542 l 631 646 b 347 735 551 699 450 735 b 67 501 178 735 65 638 b 329 283 68 360 182 319 b 456 206 403 264 456 250 b 363 151 456 174 417 151 b 122 232 267 151 186 186 l 35 92 b 358 -17 121 22 243 -17 z "},"ś":{"ha":697,"x_min":0,"x_max":0,"o":"m 204 799 l 342 799 l 547 982 l 365 1015 z m 358 -17 b 650 215 535 -17 650 74 b 389 446 650 372 513 414 b 263 522 292 472 263 483 b 347 565 263 547 297 565 b 549 501 408 565 483 542 l 631 646 b 347 735 551 699 450 735 b 67 501 178 735 65 638 b 329 283 68 360 182 319 b 456 206 403 264 456 250 b 363 151 456 174 417 151 b 122 232 267 151 186 186 l 35 92 b 358 -17 121 22 243 -17 z "},"š":{"ha":697,"x_min":0,"x_max":0,"o":"m 264 799 l 432 799 l 579 1003 l 453 1003 l 347 899 l 243 1003 l 118 1003 z m 358 -17 b 650 215 535 -17 650 74 b 389 446 650 372 513 414 b 263 522 292 472 263 483 b 347 565 263 547 297 565 b 549 501 408 565 483 542 l 631 646 b 347 735 551 699 450 735 b 67 501 178 735 65 638 b 329 283 68 360 182 319 b 456 206 403 264 456 250 b 363 151 456 174 417 151 b 122 232 267 151 186 186 l 35 92 b 358 -17 121 22 243 -17 z "},"ş":{"ha":697,"x_min":0,"x_max":0,"o":"m 650 215 b 389 446 650 372 513 414 b 263 522 292 472 263 483 b 347 565 263 547 297 565 b 549 501 408 565 483 542 l 631 646 b 347 735 551 699 450 735 b 67 501 178 735 65 638 b 329 283 68 360 182 319 b 456 206 403 264 456 250 b 363 151 456 174 417 151 b 122 232 267 151 186 186 l 35 92 b 301 -14 107 33 204 -3 l 269 -89 l 300 -118 b 342 -106 313 -110 328 -106 b 388 -143 371 -106 388 -121 b 329 -185 388 -168 361 -185 b 244 -153 300 -185 269 -174 l 208 -233 b 340 -274 239 -256 289 -274 b 490 -154 426 -274 490 -228 b 386 -60 490 -99 447 -60 l 404 -14 b 650 215 554 0 650 86 z "},"ß":{"ha":851,"x_min":0,"x_max":0,"o":"m 89 0 l 293 0 l 293 671 b 424 790 293 743 349 790 b 554 681 501 790 554 744 b 424 569 554 619 500 569 l 393 569 l 393 408 l 454 408 b 596 292 538 408 596 360 b 454 175 596 224 538 175 l 393 175 l 393 0 l 493 0 b 806 258 675 0 806 106 b 631 503 806 364 742 453 b 764 721 715 547 764 624 b 426 996 764 882 625 996 b 89 721 229 996 89 882 z "},"t":{"ha":553,"x_min":0,"x_max":0,"o":"m 467 178 b 397 154 453 164 425 154 b 329 235 360 154 329 188 l 329 554 l 485 554 l 485 718 l 329 718 l 329 915 l 135 915 l 135 718 l 36 718 l 36 554 l 135 554 l 135 203 b 350 -17 135 74 224 -17 b 515 46 408 -17 474 8 z "},"ť":{"ha":553,"x_min":0,"x_max":0,"o":"m 672 971 b 578 874 619 971 578 928 b 669 778 578 822 619 778 b 604 675 661 743 638 707 l 661 632 b 774 839 738 708 774 775 b 672 971 774 915 733 971 z m 397 154 b 329 235 360 154 329 188 l 329 554 l 485 554 l 485 718 l 329 718 l 329 915 l 135 915 l 135 718 l 36 718 l 36 554 l 135 554 l 135 203 b 350 -17 135 74 224 -17 b 515 46 408 -17 474 8 l 467 178 b 397 154 453 164 425 154 z "},"ţ":{"ha":553,"x_min":0,"x_max":0,"o":"m 390 -60 l 411 -8 b 515 46 450 1 488 21 l 467 178 b 397 154 453 164 425 154 b 329 235 360 154 329 188 l 329 554 l 485 554 l 485 718 l 329 718 l 329 915 l 135 915 l 135 718 l 36 718 l 36 554 l 135 554 l 135 203 b 306 -12 135 89 204 6 l 274 -89 l 304 -118 b 346 -106 317 -110 332 -106 b 392 -143 375 -106 392 -121 b 333 -185 392 -168 365 -185 b 249 -153 304 -185 274 -174 l 213 -233 b 344 -274 243 -256 293 -274 b 494 -154 431 -274 494 -228 b 390 -60 494 -99 451 -60 z "},"u":{"ha":853,"x_min":0,"x_max":0,"o":"m 565 718 l 565 289 l 564 293 b 414 154 564 215 499 154 b 278 304 333 154 278 215 l 278 718 l 82 718 l 82 261 b 349 -17 82 99 193 -17 b 565 90 442 -17 522 25 l 565 0 l 768 0 l 768 718 z "},"ú":{"ha":853,"x_min":0,"x_max":0,"o":"m 624 982 l 442 1015 l 281 799 l 418 799 z m 565 718 l 565 289 l 564 293 b 414 154 564 215 499 154 b 278 304 333 154 278 215 l 278 718 l 82 718 l 82 261 b 349 -17 82 99 193 -17 b 565 90 442 -17 522 25 l 565 0 l 768 0 l 768 718 z "},"û":{"ha":853,"x_min":0,"x_max":0,"o":"m 424 901 l 529 799 l 656 799 l 508 1003 l 340 1003 l 194 799 l 319 799 z m 565 718 l 565 289 l 564 293 b 414 154 564 215 499 154 b 278 304 333 154 278 215 l 278 718 l 82 718 l 82 261 b 349 -17 82 99 193 -17 b 565 90 442 -17 522 25 l 565 0 l 768 0 l 768 718 z "},"ü":{"ha":853,"x_min":0,"x_max":0,"o":"m 278 811 b 375 908 331 811 375 856 b 278 1006 375 961 331 1006 b 179 908 221 1006 179 961 b 278 811 179 856 221 811 z m 571 811 b 668 908 625 811 668 856 b 571 1006 668 961 625 1006 b 474 908 517 1006 474 961 b 571 811 474 856 517 811 z m 565 718 l 565 289 l 564 293 b 414 154 564 215 499 154 b 278 304 333 154 278 215 l 278 718 l 82 718 l 82 261 b 349 -17 82 99 193 -17 b 565 90 442 -17 522 25 l 565 0 l 768 0 l 768 718 z "},"ù":{"ha":853,"x_min":0,"x_max":0,"o":"m 554 799 l 393 1015 l 211 982 l 417 799 z m 565 718 l 565 289 l 564 293 b 414 154 564 215 499 154 b 278 304 333 154 278 215 l 278 718 l 82 718 l 82 261 b 349 -17 82 99 193 -17 b 565 90 442 -17 522 25 l 565 0 l 768 0 l 768 718 z "},"ű":{"ha":853,"x_min":0,"x_max":0,"o":"m 515 982 l 333 1015 l 172 797 l 310 797 z m 636 797 l 842 981 l 658 1014 l 499 797 z m 565 289 l 564 293 b 414 154 564 215 499 154 b 278 304 333 154 278 215 l 278 718 l 82 718 l 82 261 b 349 -17 82 99 193 -17 b 565 90 442 -17 522 25 l 565 0 l 768 0 l 768 718 l 565 718 z "},"ū":{"ha":853,"x_min":0,"x_max":0,"o":"m 663 926 l 183 926 l 183 807 l 663 807 z m 565 718 l 565 289 l 564 293 b 414 154 564 215 499 154 b 278 304 333 154 278 215 l 278 718 l 82 718 l 82 261 b 349 -17 82 99 193 -17 b 565 90 442 -17 522 25 l 565 0 l 768 0 l 768 718 z "},"ų":{"ha":853,"x_min":0,"x_max":0,"o":"m 818 -100 b 767 -118 807 -111 788 -118 b 703 -61 728 -118 703 -99 b 767 0 703 -26 728 0 l 768 0 l 768 718 l 565 718 l 565 289 l 564 293 b 414 154 564 215 499 154 b 278 304 333 154 278 215 l 278 718 l 82 718 l 82 261 b 349 -17 82 99 193 -17 b 565 90 442 -17 522 25 l 565 0 l 601 0 b 576 -86 586 -24 576 -53 b 731 -240 576 -182 640 -240 b 854 -194 781 -240 824 -222 z "},"ů":{"ha":853,"x_min":0,"x_max":0,"o":"m 424 807 b 582 964 511 807 582 876 b 424 1122 582 1051 511 1122 b 265 964 336 1122 265 1051 b 424 807 265 876 336 807 z m 424 1038 b 497 964 464 1038 497 1004 b 424 890 497 924 464 890 b 350 964 383 890 350 924 b 424 1038 350 1004 383 1038 z m 565 718 l 565 289 l 564 293 b 414 154 564 215 499 154 b 278 304 333 154 278 215 l 278 718 l 82 718 l 82 261 b 349 -17 82 99 193 -17 b 565 90 442 -17 522 25 l 565 0 l 768 0 l 768 718 z "},"v":{"ha":842,"x_min":0,"x_max":0,"o":"m 329 0 l 517 0 l 824 718 l 613 718 l 424 233 l 231 718 l 18 718 z "},"w":{"ha":1168,"x_min":0,"x_max":0,"o":"m 269 0 l 451 0 l 586 451 l 719 0 l 901 0 l 1146 718 l 947 718 l 811 271 l 669 718 l 501 718 l 360 271 l 224 718 l 25 718 z "},"ẃ":{"ha":1168,"x_min":0,"x_max":0,"o":"m 515 799 l 653 799 l 858 982 l 676 1015 z m 269 0 l 451 0 l 586 451 l 719 0 l 901 0 l 1146 718 l 947 718 l 811 271 l 669 718 l 501 718 l 360 271 l 224 718 l 25 718 z "},"ŵ":{"ha":1168,"x_min":0,"x_max":0,"o":"m 357 799 l 482 799 l 586 901 l 692 799 l 818 799 l 671 1003 l 503 1003 z m 269 0 l 451 0 l 586 451 l 719 0 l 901 0 l 1146 718 l 947 718 l 811 271 l 669 718 l 501 718 l 360 271 l 224 718 l 25 718 z "},"ẅ":{"ha":1168,"x_min":0,"x_max":0,"o":"m 440 811 b 538 908 493 811 538 856 b 440 1006 538 961 493 1006 b 342 908 383 1006 342 961 b 440 811 342 856 383 811 z m 733 811 b 831 908 788 811 831 856 b 733 1006 831 961 788 1006 b 636 908 679 1006 636 961 b 733 811 636 856 679 811 z m 269 0 l 451 0 l 586 451 l 719 0 l 901 0 l 1146 718 l 947 718 l 811 271 l 669 718 l 501 718 l 360 271 l 224 718 l 25 718 z "},"ẁ":{"ha":1168,"x_min":0,"x_max":0,"o":"m 518 799 l 656 799 l 494 1015 l 313 982 z m 269 0 l 451 0 l 586 451 l 719 0 l 901 0 l 1146 718 l 947 718 l 811 271 l 669 718 l 501 718 l 360 271 l 224 718 l 25 718 z "},"x":{"ha":786,"x_min":0,"x_max":0,"o":"m 765 0 l 501 369 l 753 718 l 539 718 l 394 518 l 251 718 l 32 718 l 285 365 l 21 0 l 235 0 l 392 217 l 547 0 z "},"y":{"ha":835,"x_min":0,"x_max":0,"o":"m 253 -250 b 511 -36 365 -250 457 -176 l 806 718 l 599 718 l 419 214 l 231 718 l 21 718 l 319 -7 l 294 -60 b 210 -99 279 -86 249 -99 b 115 -67 186 -99 150 -86 l 72 -206 b 253 -250 121 -232 193 -250 z "},"ý":{"ha":835,"x_min":0,"x_max":0,"o":"m 276 799 l 414 799 l 619 982 l 438 1015 z m 253 -250 b 511 -36 365 -250 457 -176 l 806 718 l 599 718 l 419 214 l 231 718 l 21 718 l 319 -7 l 294 -60 b 210 -99 279 -86 249 -99 b 115 -67 186 -99 150 -86 l 72 -206 b 253 -250 121 -232 193 -250 z "},"ŷ":{"ha":835,"x_min":0,"x_max":0,"o":"m 190 799 l 315 799 l 419 901 l 525 799 l 651 799 l 504 1003 l 336 1003 z m 253 -250 b 511 -36 365 -250 457 -176 l 806 718 l 599 718 l 419 214 l 231 718 l 21 718 l 319 -7 l 294 -60 b 210 -99 279 -86 249 -99 b 115 -67 186 -99 150 -86 l 72 -206 b 253 -250 121 -232 193 -250 z "},"ÿ":{"ha":835,"x_min":0,"x_max":0,"o":"m 274 811 b 371 908 326 811 371 856 b 274 1006 371 961 326 1006 b 175 908 217 1006 175 961 b 274 811 175 856 217 811 z m 567 811 b 664 908 621 811 664 856 b 567 1006 664 961 621 1006 b 469 908 513 1006 469 961 b 567 811 469 856 513 811 z m 253 -250 b 511 -36 365 -250 457 -176 l 806 718 l 599 718 l 419 214 l 231 718 l 21 718 l 319 -7 l 294 -60 b 210 -99 279 -86 249 -99 b 115 -67 186 -99 150 -86 l 72 -206 b 253 -250 121 -232 193 -250 z "},"ỳ":{"ha":835,"x_min":0,"x_max":0,"o":"m 413 799 l 550 799 l 389 1015 l 207 982 z m 253 -250 b 511 -36 365 -250 457 -176 l 806 718 l 599 718 l 419 214 l 231 718 l 21 718 l 319 -7 l 294 -60 b 210 -99 279 -86 249 -99 b 115 -67 186 -99 150 -86 l 72 -206 b 253 -250 121 -232 193 -250 z "},"z":{"ha":739,"x_min":0,"x_max":0,"o":"m 57 0 l 685 0 l 685 172 l 321 172 l 682 575 l 682 718 l 67 718 l 67 546 l 418 546 l 57 143 z "},"ź":{"ha":739,"x_min":0,"x_max":0,"o":"m 236 799 l 374 799 l 579 982 l 397 1015 z m 57 0 l 685 0 l 685 172 l 321 172 l 682 575 l 682 718 l 67 718 l 67 546 l 418 546 l 57 143 z "},"ž":{"ha":739,"x_min":0,"x_max":0,"o":"m 296 799 l 464 799 l 611 1003 l 485 1003 l 379 899 l 275 1003 l 150 1003 z m 57 0 l 685 0 l 685 172 l 321 172 l 682 575 l 682 718 l 67 718 l 67 546 l 418 546 l 57 143 z "},"ż":{"ha":739,"x_min":0,"x_max":0,"o":"m 379 811 b 476 908 432 811 476 856 b 379 1006 476 961 432 1006 b 281 908 322 1006 281 961 b 379 811 281 856 322 811 z m 57 0 l 685 0 l 685 172 l 321 172 l 682 575 l 682 718 l 67 718 l 67 546 l 418 546 l 57 143 z "},"*":{"ha":553,"x_min":0,"x_max":0,"o":"m 276 479 b 329 528 306 479 329 501 b 299 688 329 578 306 638 b 421 582 339 657 379 607 b 490 604 443 568 475 578 b 475 674 504 629 497 661 b 322 728 432 699 369 708 b 475 782 368 747 432 757 b 490 851 497 794 504 825 b 421 874 475 876 443 886 b 299 768 379 849 339 799 b 329 928 306 818 329 878 b 276 976 329 954 306 976 b 222 928 246 976 222 954 b 253 768 222 878 246 818 b 131 874 213 799 172 849 b 61 851 108 888 76 878 b 78 782 47 826 56 794 b 229 728 119 757 182 747 b 78 674 182 708 119 699 b 61 604 56 661 47 631 b 131 582 76 579 108 569 b 253 688 172 607 213 657 b 224 528 246 638 224 578 b 276 479 224 501 247 479 z "},"\\":{"ha":642,"x_min":0,"x_max":0,"o":"m 461 -103 l 675 -103 l 196 1032 l -18 1032 z "},":":{"ha":403,"x_min":0,"x_max":0,"o":"m 204 485 b 328 614 272 485 328 543 b 204 738 328 679 272 738 b 75 614 132 738 75 679 b 204 485 75 543 132 485 z m 204 -17 b 328 113 272 -17 328 42 b 204 236 328 178 272 236 b 75 113 132 236 75 178 b 204 -17 75 42 132 -17 z "},",":{"ha":407,"x_min":0,"x_max":0,"o":"m 188 -203 b 335 63 288 -107 335 -19 b 203 236 335 164 281 236 b 78 108 133 236 78 178 b 200 -17 78 40 133 -17 b 115 -147 188 -61 158 -108 z "},"…":{"ha":1126,"x_min":0,"x_max":0,"o":"m 204 -17 b 328 113 272 -17 328 42 b 204 236 328 178 272 236 b 75 113 132 236 75 178 b 204 -17 75 42 132 -17 z m 565 -17 b 689 113 633 -17 689 42 b 565 236 689 178 633 236 b 436 113 493 236 436 178 b 565 -17 436 42 493 -17 z m 926 -17 b 1050 113 994 -17 1050 42 b 926 236 1050 178 994 236 b 797 113 854 236 797 178 b 926 -17 797 42 854 -17 z "},"!":{"ha":426,"x_min":0,"x_max":0,"o":"m 147 336 l 285 336 l 331 954 l 101 954 z m 215 -17 b 339 113 283 -17 339 42 b 215 236 339 178 283 236 b 86 113 143 236 86 178 b 215 -17 86 42 143 -17 z "},"¡":{"ha":426,"x_min":0,"x_max":0,"o":"m 211 735 b 88 606 143 735 88 676 b 211 482 88 540 143 482 b 340 606 283 482 340 540 b 211 735 340 676 283 735 z m 279 382 l 142 382 l 96 -236 l 325 -236 z "},"#":{"ha":938,"x_min":0,"x_max":0,"o":"m 858 585 l 894 731 l 760 731 l 817 954 l 667 954 l 610 731 l 450 731 l 507 954 l 358 954 l 301 731 l 167 731 l 131 585 l 265 585 l 211 368 l 79 368 l 43 222 l 174 222 l 118 0 l 267 0 l 322 222 l 482 222 l 426 0 l 576 0 l 632 222 l 768 222 l 803 368 l 669 368 l 724 585 z m 519 368 l 360 368 l 414 585 l 574 585 z "},".":{"ha":403,"x_min":0,"x_max":0,"o":"m 204 -17 b 328 113 272 -17 328 42 b 204 236 328 178 272 236 b 75 113 132 236 75 178 b 204 -17 75 42 132 -17 z "},"?":{"ha":701,"x_min":0,"x_max":0,"o":"m 235 328 l 415 328 l 415 428 b 661 699 558 461 661 574 b 349 971 661 856 533 971 b 22 821 211 971 101 910 l 139 701 b 314 788 183 751 246 788 b 453 679 399 788 453 738 b 235 556 453 613 363 561 z m 325 -17 b 449 113 393 -17 449 42 b 325 236 449 178 393 236 b 196 113 253 236 196 178 b 325 -17 196 42 253 -17 z "},"¿":{"ha":701,"x_min":0,"x_max":0,"o":"m 376 735 b 253 606 308 735 253 676 b 376 482 253 540 308 482 b 506 606 449 482 506 540 b 376 735 506 676 449 735 z m 467 390 l 286 390 l 286 290 b 40 19 143 257 40 144 b 353 -253 40 -137 168 -253 b 679 -103 490 -253 600 -192 l 563 17 b 388 -69 518 -33 456 -69 b 249 39 303 -69 249 -19 b 467 163 249 106 339 157 z "},"\"":{"ha":717,"x_min":0,"x_max":0,"o":"m 151 547 l 232 547 b 297 854 263 650 297 778 b 192 963 297 914 249 963 b 86 854 135 963 86 914 b 151 547 86 778 121 650 z m 485 547 l 565 547 b 631 854 596 650 631 778 b 525 963 631 914 582 963 b 419 854 468 963 419 914 b 485 547 419 778 454 650 z "},"'":{"ha":383,"x_min":0,"x_max":0,"o":"m 151 547 l 232 547 b 297 854 263 650 297 778 b 192 963 297 914 249 963 b 86 854 135 963 86 914 b 151 547 86 778 121 650 z "},";":{"ha":407,"x_min":0,"x_max":0,"o":"m 207 485 b 331 614 275 485 331 543 b 207 738 331 679 275 738 b 78 614 135 738 78 679 b 207 485 78 543 135 485 z m 188 -203 b 335 63 288 -107 335 -19 b 203 236 335 164 281 236 b 78 108 133 236 78 178 b 200 -17 78 40 133 -17 b 115 -147 188 -61 158 -108 z "},"/":{"ha":642,"x_min":0,"x_max":0,"o":"m -33 -103 l 181 -103 l 660 1032 l 446 1032 z "},"_":{"ha":822,"x_min":0,"x_max":0,"o":"m -3 -211 l 825 -211 l 825 -93 l -3 -93 z "},"{":{"ha":565,"x_min":0,"x_max":0,"o":"m 500 -231 l 515 -107 b 335 38 368 -87 335 -61 l 336 211 b 229 369 336 294 301 346 b 336 526 300 393 336 443 l 335 701 b 515 844 335 799 365 825 l 500 968 b 176 717 264 949 176 875 l 178 550 b 46 431 178 467 142 431 l 46 308 b 178 189 140 308 178 274 l 176 21 b 500 -231 176 -136 263 -211 z "},"}":{"ha":565,"x_min":0,"x_max":0,"o":"m 65 -231 b 388 21 303 -211 388 -136 l 386 189 b 519 308 386 274 425 308 l 519 431 b 386 550 422 431 386 467 l 388 717 b 65 968 388 875 301 949 l 49 844 b 229 701 199 825 229 799 l 228 526 b 336 369 228 443 264 393 b 228 211 264 346 228 294 l 229 38 b 49 -107 229 -61 196 -87 z "},"[":{"ha":535,"x_min":0,"x_max":0,"o":"m 99 -197 l 475 -197 l 475 -65 l 257 -65 l 257 850 l 475 850 l 475 982 l 99 982 z "},"]":{"ha":535,"x_min":0,"x_max":0,"o":"m 60 -197 l 436 -197 l 436 982 l 60 982 l 60 850 l 278 850 l 278 -65 l 60 -65 z "},"(":{"ha":532,"x_min":0,"x_max":0,"o":"m 382 -236 l 485 -126 b 272 368 340 21 272 168 b 485 864 272 569 340 715 l 382 972 b 71 368 185 831 71 615 b 382 -236 71 122 185 -94 z "},")":{"ha":532,"x_min":0,"x_max":0,"o":"m 151 -236 b 463 368 347 -94 463 122 b 151 972 463 615 347 831 l 49 864 b 260 368 192 715 260 569 b 49 -126 260 168 192 21 z "},"—":{"ha":1217,"x_min":0,"x_max":0,"o":"m 63 297 l 1154 297 l 1154 467 l 63 467 z "},"–":{"ha":793,"x_min":0,"x_max":0,"o":"m 63 297 l 731 297 l 731 467 l 63 467 z "},"-":{"ha":506,"x_min":0,"x_max":0,"o":"m 63 296 l 443 296 l 443 468 l 63 468 z "},"“":{"ha":768,"x_min":0,"x_max":0,"o":"m 219 960 b 72 694 119 864 72 776 b 204 521 72 593 126 521 b 329 649 274 521 329 579 b 207 774 329 717 274 774 b 292 904 219 818 249 865 z m 581 960 b 433 694 481 864 433 776 b 565 521 433 593 488 521 b 690 649 635 521 690 579 b 568 774 690 717 635 774 b 653 904 581 818 610 865 z "},"”":{"ha":768,"x_min":0,"x_max":0,"o":"m 188 524 b 335 789 288 619 335 707 b 203 963 335 890 281 963 b 78 835 133 963 78 904 b 200 710 78 767 133 710 b 115 579 188 665 158 618 z m 549 524 b 696 789 649 619 696 707 b 564 963 696 890 642 963 b 439 835 494 963 439 904 b 561 710 439 767 494 710 b 476 579 549 665 519 618 z "},"‘":{"ha":407,"x_min":0,"x_max":0,"o":"m 219 960 b 72 694 119 864 72 776 b 204 521 72 593 126 521 b 329 649 274 521 329 579 b 207 774 329 717 274 774 b 292 904 219 818 249 865 z "},"’":{"ha":407,"x_min":0,"x_max":0,"o":"m 188 524 b 335 789 288 619 335 707 b 203 963 335 890 281 963 b 78 835 133 963 78 904 b 200 710 78 767 133 710 b 115 579 188 665 158 618 z "}," ":{"ha":388,"x_min":0,"x_max":0,"o":""},"¢":{"ha":761,"x_min":0,"x_max":0,"o":"m 728 110 l 593 224 b 493 161 567 194 531 172 l 493 557 b 589 497 531 546 564 525 l 724 613 b 493 732 665 676 586 719 l 493 818 l 357 818 l 357 725 b 49 360 183 688 49 536 b 357 -8 49 183 183 31 l 357 -103 l 493 -103 l 493 -14 b 728 110 589 -1 668 43 z m 246 361 b 357 543 246 440 292 510 l 357 175 b 246 361 292 208 246 281 z "},"$":{"ha":879,"x_min":0,"x_max":0,"o":"m 826 286 b 501 565 826 458 697 521 l 501 788 b 693 692 567 772 633 740 l 800 839 b 501 967 719 908 622 954 l 501 1054 l 367 1054 l 367 968 b 74 674 190 946 74 832 b 367 399 74 506 193 443 l 367 168 b 150 282 286 186 215 226 l 32 142 b 367 -11 122 58 238 6 l 367 -103 l 501 -103 l 501 -15 b 826 286 707 0 826 117 z m 281 694 b 367 790 281 739 313 776 l 367 601 b 281 694 306 622 281 649 z m 501 160 l 501 365 b 619 264 586 342 619 317 b 501 160 619 213 579 169 z "},"€":{"ha":967,"x_min":0,"x_max":0,"o":"m 564 169 b 301 338 453 169 351 239 l 642 338 l 642 439 l 271 439 b 268 478 269 451 268 465 b 274 533 268 497 269 515 l 642 533 l 642 635 l 311 635 b 564 785 364 724 458 785 b 786 678 651 785 731 742 l 935 811 b 564 971 842 910 708 971 b 85 635 346 971 154 828 l -22 635 l -22 533 l 60 533 b 57 478 58 515 57 497 b 58 439 57 465 57 451 l -22 439 l -22 338 l 79 338 b 564 -17 143 135 340 -17 b 935 143 708 -17 842 46 l 786 276 b 564 169 731 213 651 169 z "},"£":{"ha":908,"x_min":0,"x_max":0,"o":"m 389 160 l 389 353 l 615 353 l 615 463 l 389 463 l 389 626 b 533 785 389 719 449 785 b 696 679 603 785 669 742 l 831 813 b 511 971 772 906 640 971 b 183 643 319 971 183 835 l 183 463 l 88 463 l 88 353 l 183 353 l 183 160 l 64 85 l 64 0 l 864 0 l 864 160 z "},"¥":{"ha":964,"x_min":0,"x_max":0,"o":"m 958 954 l 729 954 l 482 536 l 244 954 l 6 954 l 317 447 l 138 447 l 138 338 l 379 338 l 379 249 l 138 249 l 138 139 l 379 139 l 379 0 l 586 0 l 586 139 l 826 139 l 826 249 l 586 249 l 586 338 l 826 338 l 826 447 l 649 447 z "},"+":{"ha":838,"x_min":0,"x_max":0,"o":"m 754 546 l 507 546 l 507 799 l 332 799 l 332 546 l 83 546 l 83 381 l 332 381 l 332 128 l 507 128 l 507 381 l 754 381 z "},"−":{"ha":838,"x_min":0,"x_max":0,"o":"m 83 381 l 754 381 l 754 546 l 83 546 z "},"×":{"ha":779,"x_min":0,"x_max":0,"o":"m 689 289 l 510 467 l 685 642 l 568 760 l 393 585 l 214 763 l 90 639 l 269 461 l 93 285 l 211 168 l 386 343 l 565 165 z "},"÷":{"ha":838,"x_min":0,"x_max":0,"o":"m 421 614 b 531 728 482 614 531 665 b 421 838 531 786 482 838 b 307 728 357 838 307 786 b 421 614 307 665 357 614 z m 83 382 l 754 382 l 754 547 l 83 547 z m 421 90 b 531 204 482 90 531 142 b 421 314 531 263 482 314 b 307 204 357 314 307 263 b 421 90 307 142 357 90 z "},"=":{"ha":838,"x_min":0,"x_max":0,"o":"m 83 544 l 754 544 l 754 710 l 83 710 z m 83 228 l 754 228 l 754 393 l 83 393 z "},">":{"ha":824,"x_min":0,"x_max":0,"o":"m 99 114 l 747 397 l 747 557 l 99 840 l 99 676 l 586 476 l 99 279 z "},"<":{"ha":824,"x_min":0,"x_max":0,"o":"m 725 114 l 725 279 l 238 476 l 725 676 l 725 840 l 76 557 l 76 397 z "},"~":{"ha":628,"x_min":0,"x_max":0,"o":"m 407 408 b 561 592 499 408 547 469 l 461 606 b 403 533 451 556 433 533 b 219 604 358 533 297 604 b 65 421 129 604 81 542 l 167 406 b 225 479 176 457 194 479 b 407 408 271 479 329 408 z "},"%":{"ha":1163,"x_min":0,"x_max":0,"o":"m 289 475 b 528 719 431 475 528 582 b 290 964 528 854 435 964 b 51 718 147 964 51 856 b 289 475 51 582 147 475 z m 176 0 l 324 0 l 988 954 l 840 954 z m 290 594 b 189 719 233 594 189 644 b 289 843 189 794 231 843 b 392 719 349 843 392 793 b 290 594 392 643 349 594 z m 872 -15 b 1110 229 1011 -15 1110 92 b 872 474 1110 364 1015 474 b 633 229 731 474 633 365 b 872 -15 633 93 729 -15 z m 872 106 b 769 229 813 106 769 156 b 872 354 769 306 811 354 b 974 229 929 354 974 304 b 872 106 974 154 932 106 z "},"‰":{"ha":1694,"x_min":0,"x_max":0,"o":"m 289 475 b 528 719 431 475 528 582 b 290 964 528 854 435 964 b 51 718 147 964 51 856 b 289 475 51 582 147 475 z m 176 0 l 324 0 l 988 954 l 840 954 z m 290 594 b 189 719 233 594 189 644 b 289 843 189 794 231 843 b 392 719 349 843 392 793 b 290 594 392 643 349 594 z m 872 -15 b 1110 229 1011 -15 1110 92 b 872 474 1110 364 1015 474 b 633 229 731 474 633 365 b 872 -15 633 93 729 -15 z m 1404 -15 b 1642 229 1544 -15 1642 92 b 1404 474 1642 364 1549 474 b 1165 229 1263 474 1165 365 b 1404 -15 1165 93 1263 -15 z m 872 106 b 769 229 813 106 769 156 b 872 354 769 306 811 354 b 974 229 929 354 974 304 b 872 106 974 154 932 106 z m 1404 106 b 1303 229 1346 106 1303 156 b 1404 354 1303 306 1344 354 b 1506 229 1461 354 1506 304 b 1404 106 1506 154 1464 106 z "},"@":{"ha":1222,"x_min":0,"x_max":0,"o":"m 590 -161 b 918 -65 715 -161 818 -129 l 890 -22 b 593 -107 796 -79 707 -107 b 117 363 322 -107 117 101 b 640 883 117 646 351 883 b 1103 456 907 883 1103 693 b 951 206 1103 285 1026 206 b 876 282 906 206 876 233 b 947 671 876 332 901 433 l 781 683 l 764 603 b 581 703 731 658 671 703 b 269 356 419 703 269 546 b 503 104 269 207 364 104 b 708 213 585 104 657 147 b 881 103 729 147 786 103 b 1161 456 1011 103 1161 215 b 643 939 1161 714 939 939 b 60 361 324 939 60 675 b 590 -161 60 72 292 -161 z m 563 244 b 443 369 490 244 443 292 b 618 563 443 471 518 563 b 728 426 696 563 736 508 b 563 244 718 322 653 244 z "},"&":{"ha":943,"x_min":0,"x_max":0,"o":"m 906 53 l 756 211 b 888 432 803 274 846 349 l 740 501 b 647 326 715 439 683 379 b 500 490 589 389 542 442 b 718 725 651 560 718 618 b 449 967 718 863 604 967 b 178 724 297 967 178 857 b 246 529 178 653 196 603 b 39 260 100 464 39 385 b 360 -17 39 86 176 -17 b 638 83 468 -17 558 19 l 739 -22 z m 451 821 b 543 724 506 821 543 779 b 413 594 543 661 506 632 b 351 724 374 643 351 679 b 451 821 351 781 396 821 z m 385 138 b 240 274 306 138 240 189 b 335 413 240 329 269 374 b 531 196 383 356 446 285 b 385 138 483 160 435 138 z "},"|":{"ha":415,"x_min":0,"x_max":0,"o":"m 138 -103 l 278 -103 l 278 1032 l 138 1032 z "},"^":{"ha":678,"x_min":0,"x_max":0,"o":"m 60 574 l 203 574 l 338 829 l 472 574 l 617 574 l 410 954 l 269 954 z "},"̦":{"ha":0,"x_min":0,"x_max":0,"o":"m -215 -404 b -103 -197 -139 -328 -103 -261 b -204 -65 -103 -121 -143 -65 b -299 -162 -257 -65 -299 -108 b -207 -258 -299 -214 -257 -258 b -272 -361 -215 -293 -239 -329 z "},"´":{"ha":518,"x_min":0,"x_max":0,"o":"m 88 799 l 225 799 l 431 982 l 249 1015 z "},"˘":{"ha":622,"x_min":0,"x_max":0,"o":"m 311 807 b 535 899 392 807 474 838 l 447 986 b 311 928 410 950 358 928 b 175 986 264 928 213 950 l 88 899 b 311 807 150 838 231 807 z "},"ˇ":{"ha":636,"x_min":0,"x_max":0,"o":"m 233 799 l 401 799 l 549 1003 l 422 1003 l 317 899 l 213 1003 l 88 1003 z "},"¸":{"ha":457,"x_min":0,"x_max":0,"o":"m 265 -60 l 296 15 l 193 15 l 149 -89 l 179 -118 b 221 -106 192 -110 207 -106 b 267 -143 250 -106 267 -121 b 208 -185 267 -168 240 -185 b 124 -153 179 -185 149 -174 l 88 -233 b 219 -274 118 -256 168 -274 b 369 -154 306 -274 369 -228 b 265 -60 369 -99 326 -60 z "},"ˆ":{"ha":636,"x_min":0,"x_max":0,"o":"m 88 799 l 213 799 l 317 901 l 422 799 l 549 799 l 401 1003 l 233 1003 z "},"¨":{"ha":664,"x_min":0,"x_max":0,"o":"m 186 811 b 283 908 239 811 283 856 b 186 1006 283 961 239 1006 b 88 908 129 1006 88 961 b 186 811 88 856 129 811 z m 479 811 b 576 908 533 811 576 856 b 479 1006 576 961 533 1006 b 382 908 425 1006 382 961 b 479 811 382 856 425 811 z "},"˙":{"ha":371,"x_min":0,"x_max":0,"o":"m 186 811 b 283 908 239 811 283 856 b 186 1006 283 961 239 1006 b 88 908 129 1006 88 961 b 186 811 88 856 129 811 z "},"`":{"ha":518,"x_min":0,"x_max":0,"o":"m 293 799 l 431 799 l 269 1015 l 88 982 z "},"˝":{"ha":844,"x_min":0,"x_max":0,"o":"m 88 797 l 225 797 l 431 982 l 249 1015 z m 414 797 l 551 797 l 757 981 l 574 1014 z "},"¯":{"ha":654,"x_min":0,"x_max":0,"o":"m 88 807 l 567 807 l 567 926 l 88 926 z "},"˛":{"ha":453,"x_min":0,"x_max":0,"o":"m 242 -240 b 365 -194 292 -240 335 -222 l 329 -100 b 278 -118 318 -111 299 -118 b 214 -61 239 -118 214 -99 b 278 0 214 -26 239 0 l 160 42 b 88 -86 115 17 88 -28 b 242 -240 88 -182 151 -240 z "},"˚":{"ha":492,"x_min":0,"x_max":0,"o":"m 246 807 b 404 964 333 807 404 876 b 246 1122 404 1051 333 1122 b 88 964 158 1122 88 1051 b 246 807 88 876 158 807 z m 246 890 b 172 964 206 890 172 924 b 246 1038 172 1004 206 1038 b 319 964 286 1038 319 1004 b 246 890 319 924 286 890 z "},"˜":{"ha":617,"x_min":0,"x_max":0,"o":"m 401 796 b 556 979 493 796 542 857 l 456 993 b 397 921 446 943 428 921 b 214 992 353 921 292 992 b 60 808 124 992 75 929 l 161 793 b 219 867 171 844 189 867 b 401 796 265 867 324 796 z "}}}
